<svg xmlns="http://www.w3.org/2000/svg" width="21" height="21" fill="none"><path stroke="#301b69" stroke-linecap="round" stroke-linejoin="round" stroke-width="1.5" d="M7.375 18.467h6.25M6.649 13.39A6.24 6.24 0 0 1 4.25 8.501c-.019-3.388 2.713-6.204 6.1-6.284a6.25 6.25 0 0 1 4.01 11.164 1.9 1.9 0 0 0-.735 1.489v.47a.625.625 0 0 1-.625.626H8a.625.625 0 0 1-.625-.626v-.47a1.88 1.88 0 0 0-.726-1.482"/><path stroke="#301b69" stroke-linecap="round" stroke-linejoin="round" stroke-width="1.5" d="M11.135 4.778a3.74 3.74 0 0 1 3.062 3.059"/></svg>