<svg width="114" height="49" viewBox="0 0 114 49" fill="none" xmlns="http://www.w3.org/2000/svg">
<g clip-path="url(#clip0_1_1118)">
<path d="M49.0376 25.7612C49.0376 31.0845 44.8732 35.0071 39.7626 35.0071C34.6519 35.0071 30.4875 31.0845 30.4875 25.7612C30.4875 20.4005 34.6519 16.5154 39.7626 16.5154C44.8732 16.5154 49.0376 20.4005 49.0376 25.7612ZM44.9774 25.7612C44.9774 22.4347 42.5638 20.1587 39.7626 20.1587C36.9613 20.1587 34.5477 22.4347 34.5477 25.7612C34.5477 29.0544 36.9613 31.3637 39.7626 31.3637C42.5638 31.3637 44.9774 29.0502 44.9774 25.7612Z" fill="#301B69" fill-opacity="0.48"/>
<path d="M69.0469 25.7612C69.0469 31.0845 64.8825 35.0071 59.7718 35.0071C54.6612 35.0071 50.4968 31.0845 50.4968 25.7612C50.4968 20.4046 54.6612 16.5154 59.7718 16.5154C64.8825 16.5154 69.0469 20.4005 69.0469 25.7612ZM64.9867 25.7612C64.9867 22.4347 62.5731 20.1587 59.7718 20.1587C56.9706 20.1587 54.557 22.4347 54.557 25.7612C54.557 29.0544 56.9706 31.3637 59.7718 31.3637C62.5731 31.3637 64.9867 29.0502 64.9867 25.7612Z" fill="#301B69" fill-opacity="0.48"/>
<path d="M88.2225 17.074V33.6731C88.2225 40.5012 84.1957 43.29 79.4352 43.29C74.954 43.29 72.2569 40.2928 71.2398 37.8417L74.7747 36.3702C75.4042 37.875 76.9466 39.6508 79.431 39.6508C82.4782 39.6508 84.3666 37.7708 84.3666 34.2317V32.9019H84.2248C83.3161 34.0233 81.5653 35.0029 79.356 35.0029C74.733 35.0029 70.4978 30.9761 70.4978 25.7946C70.4978 20.5755 74.733 16.5154 79.356 16.5154C81.5611 16.5154 83.3119 17.495 84.2248 18.583H84.3666V17.0781H88.2225V17.074ZM84.6542 25.7946C84.6542 22.5389 82.4824 20.1587 79.7186 20.1587C76.9174 20.1587 74.5705 22.5389 74.5705 25.7946C74.5705 29.0169 76.9174 31.3637 79.7186 31.3637C82.4824 31.3637 84.6542 29.0169 84.6542 25.7946Z" fill="#301B69" fill-opacity="0.48"/>
<path d="M94.579 7.34473V34.4403H90.6189V7.34473H94.579Z" fill="#301B69" fill-opacity="0.48"/>
<path d="M110.011 28.8043L113.163 30.9052C112.146 32.4101 109.695 35.0029 105.459 35.0029C100.207 35.0029 96.2844 30.9427 96.2844 25.7571C96.2844 20.2588 100.24 16.5112 105.005 16.5112C109.803 16.5112 112.15 20.3296 112.917 22.393L113.338 23.4435L100.978 28.5625C101.924 30.4175 103.396 31.3638 105.459 31.3638C107.527 31.3638 108.961 30.3466 110.011 28.8043ZM100.311 25.4778L108.573 22.0471C108.119 20.8924 106.752 20.0878 105.143 20.0878C103.079 20.0878 100.207 21.9095 100.311 25.4778Z" fill="#301B69" fill-opacity="0.48"/>
<path d="M15.4975 23.3558V19.4332H28.716C28.8452 20.1169 28.9119 20.9256 28.9119 21.801C28.9119 24.744 28.1074 28.3831 25.5145 30.9759C22.9926 33.6021 19.7703 35.0028 15.5017 35.0028C7.58977 35.0028 0.936768 28.5582 0.936768 20.6463C0.936768 12.7344 7.58977 6.28979 15.5017 6.28979C19.8786 6.28979 22.9967 8.00724 25.3394 10.2457L22.5715 13.0137C20.8916 11.438 18.6156 10.2124 15.4975 10.2124C9.7199 10.2124 5.20119 14.8687 5.20119 20.6463C5.20119 26.4239 9.7199 31.0801 15.4975 31.0801C19.245 31.0801 21.3793 29.5753 22.7466 28.208C23.8554 27.0992 24.5849 25.5151 24.8726 23.3517L15.4975 23.3558Z" fill="#301B69" fill-opacity="0.48"/>
</g>
<defs>
<clipPath id="clip0_1_1118">
<rect width="113" height="48" fill="white" transform="translate(0.800049 0.111084)"/>
</clipPath>
</defs>
</svg>
