<svg width="164" height="49" viewBox="0 0 164 49" fill="none" xmlns="http://www.w3.org/2000/svg">
<path d="M163.858 21.9449V19.0633H160.279V14.5833L160.159 14.6204L156.798 15.6488L156.731 15.669V19.0634H151.426V17.1724C151.426 16.2919 151.623 15.6181 152.011 15.1687C152.396 14.7247 152.948 14.499 153.65 14.499C154.156 14.499 154.679 14.618 155.206 14.8528L155.338 14.9118V11.877L155.276 11.8541C154.784 11.6775 154.116 11.5886 153.288 11.5886C152.244 11.5886 151.296 11.8158 150.469 12.2659C149.641 12.7167 148.99 13.3603 148.534 14.1785C148.08 14.9958 147.849 15.9397 147.849 16.9843V19.0633H145.357V21.9449H147.849V34.085H151.426V21.9449H156.731V29.6597C156.731 32.837 158.23 34.4472 161.186 34.4472C161.671 34.4472 162.183 34.3903 162.704 34.2788C163.236 34.1644 163.598 34.0501 163.811 33.928L163.858 33.9002V30.9918L163.712 31.088C163.518 31.2174 163.276 31.3231 162.993 31.4017C162.708 31.4818 162.471 31.5219 162.286 31.5219C161.594 31.5219 161.082 31.3353 160.764 30.9671C160.442 30.5956 160.279 29.9458 160.279 29.0369V21.9449H163.858ZM137.369 31.5224C136.071 31.5224 135.047 31.0919 134.326 30.2438C133.6 29.3915 133.232 28.1764 133.232 26.6325C133.232 25.0397 133.6 23.793 134.326 22.9256C135.048 22.064 136.062 21.6267 137.34 21.6267C138.58 21.6267 139.568 22.0443 140.275 22.8687C140.986 23.6974 141.346 24.9341 141.346 26.5455C141.346 28.1767 141.007 29.4297 140.338 30.2679C139.674 31.0998 138.675 31.5224 137.369 31.5224ZM137.528 18.7014C135.051 18.7014 133.084 19.4272 131.681 20.8587C130.279 22.2903 129.568 24.2715 129.568 26.7478C129.568 29.0997 130.262 30.9915 131.631 32.3698C132.999 33.7485 134.862 34.4468 137.166 34.4468C139.567 34.4468 141.495 33.7109 142.897 32.2596C144.299 30.8099 145.01 28.8474 145.01 26.429C145.01 24.0403 144.343 22.1344 143.028 20.7653C141.712 19.3957 139.862 18.7014 137.528 18.7014ZM123.801 18.7014C122.116 18.7014 120.722 19.1324 119.658 19.9821C118.586 20.837 118.043 21.9581 118.043 23.3148C118.043 24.02 118.16 24.6464 118.391 25.1777C118.623 25.7108 118.983 26.1801 119.46 26.574C119.934 26.9648 120.665 27.374 121.634 27.7904C122.449 28.1257 123.057 28.4093 123.443 28.6327C123.82 28.8518 124.088 29.072 124.239 29.2864C124.386 29.4963 124.46 29.7835 124.46 30.1379C124.46 31.1472 123.704 31.6382 122.149 31.6382C121.572 31.6382 120.915 31.5178 120.194 31.2803C119.478 31.0465 118.803 30.704 118.191 30.2649L118.043 30.1584V33.6023L118.097 33.6277C118.603 33.8613 119.241 34.0583 119.994 34.2134C120.744 34.3685 121.426 34.4475 122.019 34.4475C123.847 34.4475 125.32 34.0144 126.394 33.1596C127.475 32.2989 128.023 31.1513 128.023 29.7477C128.023 28.7351 127.728 27.8668 127.147 27.1665C126.569 26.472 125.567 25.8343 124.169 25.2706C123.055 24.8236 122.342 24.4526 122.048 24.1677C121.764 23.8925 121.62 23.5034 121.62 23.0106C121.62 22.5738 121.798 22.2238 122.163 21.9404C122.531 21.6555 123.043 21.5106 123.685 21.5106C124.281 21.5106 124.891 21.6048 125.497 21.7893C126.103 21.9738 126.636 22.2209 127.08 22.5232L127.226 22.623V19.3562L127.17 19.3321C126.76 19.1563 126.219 19.0059 125.563 18.8838C124.909 18.7626 124.317 18.7014 123.801 18.7014ZM108.718 31.5224C107.42 31.5224 106.396 31.0919 105.675 30.2438C104.949 29.3915 104.581 28.1767 104.581 26.6325C104.581 25.0397 104.949 23.793 105.675 22.9256C106.397 22.064 107.41 21.6267 108.689 21.6267C109.929 21.6267 110.916 22.0443 111.624 22.8687C112.335 23.6974 112.695 24.9341 112.695 26.5455C112.695 28.1767 112.356 29.4297 111.687 30.2679C111.023 31.0998 110.024 31.5224 108.718 31.5224ZM108.877 18.7014C106.4 18.7014 104.432 19.4272 103.03 20.8587C101.628 22.2903 100.917 24.2715 100.917 26.7478C100.917 29.1007 101.611 30.9915 102.98 32.3698C104.348 33.7485 106.211 34.4468 108.515 34.4468C110.916 34.4468 112.844 33.7109 114.247 32.2596C115.648 30.8099 116.359 28.8474 116.359 26.429C116.359 24.0403 115.692 22.1344 114.377 20.7653C113.061 19.3957 111.21 18.7014 108.877 18.7014ZM95.487 21.6647V19.0633H91.9536V34.0847H95.487V26.4006C95.487 25.094 95.7833 24.0206 96.3679 23.2098C96.945 22.4087 97.7141 22.0028 98.6531 22.0028C98.9714 22.0028 99.3287 22.0553 99.7156 22.1591C100.099 22.2623 100.376 22.3743 100.54 22.4923L100.688 22.5999V19.0376L100.631 19.013C100.302 18.8732 99.8362 18.8027 99.2472 18.8027C98.3592 18.8027 97.5646 19.088 96.884 19.6497C96.2866 20.1435 95.8548 20.8205 95.5246 21.6647H95.487ZM85.6258 18.7014C84.0047 18.7014 82.5588 19.049 81.3289 19.7342C80.0965 20.421 79.1434 21.4016 78.4949 22.6484C77.8493 23.8922 77.5215 25.3451 77.5215 26.9654C77.5215 28.3847 77.8393 29.6871 78.4675 30.8351C79.096 31.9849 79.9855 32.8844 81.1116 33.5083C82.2361 34.1314 83.5357 34.4473 84.9746 34.4473C86.6538 34.4473 88.0876 34.1116 89.2371 33.4495L89.2835 33.4229V30.1857L89.135 30.2941C88.6143 30.6734 88.0324 30.9761 87.4063 31.1943C86.7818 31.4122 86.2124 31.5224 85.7131 31.5224C84.3266 31.5224 83.2136 31.0885 82.4057 30.2332C81.596 29.3768 81.1855 28.1742 81.1855 26.6609C81.1855 25.1381 81.6136 23.9046 82.4573 22.9944C83.2985 22.087 84.4136 21.6267 85.7714 21.6267C86.9328 21.6267 88.0646 22.0199 89.1353 22.7966L89.2835 22.9042V19.4933L89.2356 19.4663C88.8327 19.2408 88.2832 19.0545 87.6009 18.9133C86.9216 18.7724 86.2571 18.7014 85.6258 18.7014ZM75.088 19.0634H71.5545V34.0847H75.088V19.0634ZM73.3574 12.6643C72.7758 12.6643 72.2686 12.8622 71.8518 13.2545C71.4334 13.648 71.2211 14.1433 71.2211 14.7279C71.2211 15.3033 71.4308 15.7896 71.8453 16.1725C72.2571 16.5544 72.766 16.7479 73.3575 16.7479C73.9489 16.7479 74.4596 16.5544 74.8763 16.1732C75.2958 15.7896 75.5085 15.3034 75.5085 14.7279C75.5085 14.1638 75.3015 13.6735 74.8936 13.2704C74.4861 12.8681 73.969 12.6643 73.3574 12.6643ZM64.5411 17.9551V34.0847H68.1472V13.1241H63.1562L56.8124 28.693L50.6561 13.1241H45.4619V34.0845H48.8507V17.9535H48.967L55.4679 34.0847H58.0253L64.4248 17.9551H64.5411Z" fill="#301B69" fill-opacity="0.48"/>
<path d="M16.6225 22.7424H0V6.11987H16.6225V22.7424Z" fill="#301B69" fill-opacity="0.48"/>
<path d="M34.9757 22.7424H18.3535V6.11987H34.9757V22.7424Z" fill="#301B69" fill-opacity="0.48"/>
<path d="M16.622 41.1021H0V24.4797H16.622V41.1021Z" fill="#301B69" fill-opacity="0.48"/>
<path d="M34.9757 41.1021H18.3535V24.4797H34.9757V41.1021Z" fill="#301B69" fill-opacity="0.48"/>
</svg>
