<svg width="130" height="49" viewBox="0 0 130 49" fill="none" xmlns="http://www.w3.org/2000/svg">
<g clip-path="url(#clip0_1_1116)">
<path d="M45.3355 34.886V20.331H45.5948L56.1895 34.886H59.5235V13.5117H55.8191V28.0301H55.5597L44.9651 13.5117H41.6311V34.886H45.3355ZM70.007 35.216C74.8969 35.216 77.8975 32.063 77.8975 26.7836C77.8975 21.5408 74.8969 18.3512 70.007 18.3512C65.1542 18.3512 62.1166 21.5408 62.1166 26.7836C62.1536 32.063 65.1172 35.216 70.007 35.216ZM70.007 32.1363C67.4139 32.1363 65.9321 30.1932 65.9321 26.7836C65.9321 23.4106 67.4139 21.4308 70.007 21.4308C72.6001 21.4308 74.0819 23.4106 74.0819 26.7836C74.0819 30.1932 72.6001 32.1363 70.007 32.1363ZM81.2685 14.7216V18.7911H78.6754V21.7241H81.2685V30.5598C81.2685 33.7128 82.7503 34.9593 86.5288 34.9593C87.2326 34.9593 87.9365 34.886 88.4921 34.776V31.9163C88.0476 31.953 87.7512 31.9897 87.2326 31.9897C85.6768 31.9897 84.9729 31.2931 84.9729 29.6799V21.7241H88.4921V18.7911H84.9729V14.7216H81.2685ZM90.7148 34.886H94.4192V18.6811H90.7148V34.886ZM92.567 16.0048C93.7895 16.0048 94.7897 15.0149 94.7897 13.805C94.7897 12.5585 93.7895 11.5686 92.567 11.5686C91.3445 11.5686 90.3443 12.5585 90.3443 13.805C90.3443 15.0149 91.3445 16.0048 92.567 16.0048ZM104.569 35.216C109.459 35.216 112.46 32.063 112.46 26.7836C112.46 21.5408 109.459 18.3512 104.569 18.3512C99.7165 18.3512 96.6789 21.5408 96.6789 26.7836C96.6789 32.063 99.6425 35.216 104.569 35.216ZM104.569 32.1363C101.976 32.1363 100.494 30.1932 100.494 26.7836C100.494 23.4106 101.976 21.4308 104.569 21.4308C107.125 21.4308 108.644 23.4106 108.644 26.7836C108.607 30.1932 107.125 32.1363 104.569 32.1363ZM114.645 34.886H118.35V25.4637C118.35 23.0807 119.758 21.5775 121.943 21.5775C124.203 21.5775 125.24 22.824 125.24 25.2804V34.886H128.944V24.4005C128.944 20.5143 126.944 18.3512 123.314 18.3512C120.869 18.3512 119.239 19.4511 118.461 21.2842H118.202V18.6811H114.608C114.645 18.6811 114.645 34.886 114.645 34.886Z" fill="#301B69" fill-opacity="0.48"/>
<path fill-rule="evenodd" clip-rule="evenodd" d="M6.11196 12.1437C7.19014 13.0135 7.58012 12.9448 9.59883 12.8075L28.6161 11.663C29.029 11.663 28.6849 11.251 28.5473 11.2052L25.3815 8.93915C24.7851 8.48136 23.9593 7.93201 22.4223 8.06935L4.02442 9.41982C3.35916 9.48849 3.22152 9.83184 3.4968 10.0836L6.11196 12.1437ZM7.25896 16.5613V36.5209C7.25896 37.5967 7.78658 37.9859 9.0024 37.9172L29.9007 36.704C31.1165 36.6354 31.2542 35.9029 31.2542 35.0331V15.2109C31.2542 14.3411 30.9101 13.8604 30.176 13.929L8.33713 15.2109C7.53424 15.2795 7.25896 15.6915 7.25896 16.5613ZM27.882 17.6371C28.0196 18.2323 27.882 18.8503 27.2856 18.9189L26.2762 19.125V33.8658C25.4045 34.3235 24.6016 34.5982 23.9134 34.5982C22.8352 34.5982 22.5599 34.2549 21.757 33.2477L15.1733 22.9246V32.9044L17.2608 33.3622C17.2608 33.3622 17.2608 34.5753 15.5862 34.5753L10.9523 34.85C10.8147 34.5753 10.9523 33.9115 11.4111 33.7742L12.6269 33.4309V20.2465L10.9523 20.1092C10.8147 19.5141 11.1588 18.6443 12.0993 18.5756L17.0773 18.2323L23.9363 28.6699V19.4454L22.1929 19.2394C22.0552 18.5069 22.6058 17.9576 23.2711 17.8889L27.882 17.6371ZM2.48744 7.58867L21.6423 6.19241C23.9822 5.98641 24.6016 6.12375 26.0697 7.19955L32.1718 11.4799C33.1811 12.2123 33.5252 12.4183 33.5252 13.2195V36.7269C33.5252 38.1919 32.9976 39.0617 31.1165 39.199L8.8877 40.5495C7.46542 40.6181 6.80016 40.4121 6.06608 39.4737L1.5469 33.6369C0.744002 32.5611 0.399902 31.7599 0.399902 30.8215V9.92339C0.399902 8.71025 0.950462 7.72601 2.48744 7.58867Z" fill="#301B69" fill-opacity="0.48"/>
</g>
<defs>
<clipPath id="clip0_1_1116">
<rect width="129" height="48" fill="white" transform="translate(0.399902 0.111084)"/>
</clipPath>
</defs>
</svg>
