<svg width="122" height="49" viewBox="0 0 122 49" fill="none" xmlns="http://www.w3.org/2000/svg">
<g clip-path="url(#clip0_1_1125)">
<path d="M38.125 32.5374L39.5931 29.106C41.2006 30.2964 43.2973 30.9264 45.3944 30.9264C46.9322 30.9264 47.9106 30.3315 47.9106 29.4212C47.8755 26.9 38.6493 28.8609 38.5791 22.5222C38.544 19.3008 41.4101 16.8147 45.4646 16.8147C47.8755 16.8147 50.2875 17.4101 51.9997 18.776L50.6278 22.2806C49.0524 21.2676 47.1066 20.5614 45.2546 20.5614C43.9965 20.5614 43.1574 21.1564 43.1574 21.9273C43.1925 24.4134 52.4894 23.0475 52.5942 29.106C52.5942 32.3976 49.7978 34.7088 45.8135 34.7088C42.8782 34.7088 40.1871 34.0085 38.1245 32.5374H38.125ZM96.583 27.8634C96.2125 28.5218 95.6734 29.0699 95.0212 29.4513C94.3689 29.8326 93.627 30.0337 92.8714 30.0337C90.5166 30.0337 88.6079 28.121 88.6079 25.7617C88.6079 23.4024 90.5166 21.4897 92.8714 21.4897C93.627 21.4897 94.3689 21.6908 95.0212 22.0722C95.6734 22.4536 96.2125 23.0016 96.583 23.66L100.665 21.3945C99.1358 18.6622 96.2197 16.8147 92.8714 16.8147C87.9398 16.8147 83.9419 20.82 83.9419 25.7617C83.9419 30.7029 87.9398 34.7088 92.8714 34.7088C96.2197 34.7088 99.1358 32.8612 100.665 30.129L96.583 27.8634ZM55.2427 34.3584H60.3453V9.36682H55.2432L55.2427 34.3584ZM103.241 9.36682V34.3584H108.344V26.871L114.39 34.3584H120.912L113.224 25.4635L120.353 17.1635H114.111L108.344 24.064V9.36682H103.241ZM76.0655 17.1645V19.196C75.2269 17.7951 73.1648 16.8147 70.998 16.8147C66.5245 16.8147 62.9948 20.7719 62.9948 25.7442C62.9948 30.7164 66.5245 34.7088 70.998 34.7088C73.1648 34.7088 75.2269 33.7283 76.0655 32.3274V34.3584H81.1681V17.1645H76.0655ZM76.0655 27.898C75.3317 29.1235 73.7939 30.0332 72.0817 30.0332C69.7264 30.0332 67.8177 28.121 67.8177 25.7617C67.8177 23.4024 69.7264 21.4897 72.0817 21.4897C73.7939 21.4897 75.3317 22.435 76.0655 23.6951V27.898Z" fill="#301B69" fill-opacity="0.48"/>
<path d="M11.1782 8.8147C9.52467 8.8147 8.18437 10.158 8.18437 11.8146C8.18397 12.2081 8.2611 12.5979 8.41134 12.9617C8.56158 13.3254 8.782 13.656 9.06001 13.9346C9.33801 14.2132 9.66817 14.4342 10.0316 14.5852C10.3951 14.7362 10.7847 14.8141 11.1782 14.8145H14.1726V11.8146C14.1733 11.0197 13.8582 10.2571 13.2967 9.69456C12.7351 9.13199 11.9731 8.81549 11.1782 8.8147ZM11.1782 16.8144H3.19407C1.5405 16.8144 0.200195 18.1577 0.200195 19.8148C0.200195 21.4714 1.5405 22.8147 3.19407 22.8147H11.1787C12.8318 22.8147 14.1726 21.4714 14.1726 19.8148C14.1726 18.1577 12.8318 16.8144 11.1782 16.8144Z" fill="#301B69" fill-opacity="0.48"/>
<path d="M30.1411 19.8148C30.1411 18.1577 28.8003 16.8144 27.1468 16.8144C25.4932 16.8144 24.1529 18.1577 24.1529 19.8148V22.8147H27.1468C27.9416 22.8139 28.7036 22.4974 29.2652 21.9348C29.8267 21.3723 30.1418 20.6097 30.1411 19.8148ZM22.157 19.8148V11.8146C22.1576 11.0197 21.8425 10.2571 21.281 9.69456C20.7195 9.13199 19.9574 8.81549 19.1626 8.8147C17.509 8.8147 16.1687 10.158 16.1687 11.8146V19.8143C16.1687 21.4719 17.509 22.8152 19.1626 22.8152C19.9574 22.8144 20.7195 22.4979 21.281 21.9353C21.8425 21.3728 22.1576 20.6102 22.157 19.8153" fill="#301B69" fill-opacity="0.48"/>
<path d="M19.1626 38.8147C19.9574 38.8139 20.7195 38.4974 21.281 37.9348C21.8425 37.3723 22.1576 36.6097 22.157 35.8148C22.1576 35.0199 21.8425 34.2573 21.281 33.6948C20.7195 33.1322 19.9574 32.8157 19.1626 32.8149H16.1687V35.8148C16.1687 37.4714 17.509 38.8147 19.1626 38.8147ZM19.1626 30.815H27.1473C28.8003 30.815 30.1411 29.4717 30.1411 27.8146C30.1418 27.0197 29.8267 26.2571 29.2652 25.6946C28.7036 25.132 27.9416 24.8155 27.1468 24.8147H19.1626C17.509 24.8147 16.1687 26.158 16.1687 27.8146C16.1683 28.2081 16.2454 28.5979 16.3957 28.9617C16.5459 29.3254 16.7663 29.656 17.0443 29.9346C17.3224 30.2132 17.6525 30.4342 18.016 30.5852C18.3794 30.7362 18.769 30.8141 19.1626 30.8145" fill="#301B69" fill-opacity="0.48"/>
<path d="M0.199953 27.8146C0.199558 28.2081 0.276683 28.5979 0.426926 28.9617C0.577168 29.3254 0.797585 29.656 1.07559 29.9346C1.3536 30.2132 1.68375 30.4342 2.0472 30.5852C2.41065 30.7362 2.80027 30.8141 3.19383 30.8145C3.9887 30.8137 4.7507 30.4972 5.31224 29.9346C5.87378 29.372 6.18887 28.6095 6.18821 27.8146V24.8147H3.19383C1.54026 24.8147 0.199953 26.158 0.199953 27.8146ZM8.18412 27.8146V35.8143C8.18412 37.4714 9.52443 38.8147 11.178 38.8147C11.9729 38.8139 12.7349 38.4974 13.2964 37.9348C13.858 37.3723 14.173 36.6097 14.1724 35.8148V27.8146C14.1728 27.421 14.0956 27.0312 13.9454 26.6674C13.7951 26.3036 13.5746 25.973 13.2966 25.6944C13.0185 25.4158 12.6883 25.1948 12.3248 25.0438C11.9613 24.8929 11.5716 24.815 11.178 24.8147C9.52443 24.8147 8.18412 26.158 8.18412 27.8146Z" fill="#301B69" fill-opacity="0.48"/>
</g>
<defs>
<clipPath id="clip0_1_1125">
<rect width="121" height="48" fill="white" transform="translate(0.199951 0.111084)"/>
</clipPath>
</defs>
</svg>
