<svg width="133" height="49" viewBox="0 0 133 49" fill="none" xmlns="http://www.w3.org/2000/svg">
<g clip-path="url(#clip0_1_1131)">
<path d="M28.3054 7.11108H6.35838C3.3159 7.11108 0.850098 9.57689 0.850098 12.6194V34.5663C0.850098 37.6088 3.3159 40.0746 6.35838 40.0746H28.3054C31.3478 40.0746 33.8136 37.6088 33.8136 34.5663V12.6194C33.8136 9.57689 31.3478 7.11108 28.3054 7.11108ZM27.8215 32.3425C27.8215 33.3036 27.0426 34.0825 26.0815 34.0825H8.58225C7.62111 34.0825 6.84226 33.3036 6.84226 32.3425V14.8432C6.84226 13.8821 7.62111 13.1033 8.58225 13.1033H26.0815C27.0426 13.1033 27.8215 13.8821 27.8215 14.8432V32.3425ZM13.8353 28.0671C13.2819 28.0671 12.8377 27.6197 12.8377 27.0662V20.0797C12.8377 19.5263 13.2819 19.0755 13.8353 19.0755H20.8317C21.3819 19.0755 21.8293 19.523 21.8293 20.0797V27.0629C21.8293 27.6164 21.3819 28.0638 20.8317 28.0638H13.8353V28.0671ZM42.5533 27.5898H46.1526C46.3316 29.6281 47.7136 31.2189 50.5009 31.2189C52.9899 31.2189 54.5211 29.9894 54.5211 28.1301C54.5211 26.3901 53.3213 25.6112 51.1604 25.1008L48.3698 24.501C45.3406 23.8414 43.0604 21.8926 43.0604 18.711C43.0604 15.2012 46.1791 12.8017 50.2291 12.8017C54.5178 12.8017 57.2785 15.052 57.5172 18.3795H54.0372C53.6229 16.8218 52.3304 15.8938 50.2324 15.8938C48.0119 15.8938 46.484 17.0936 46.484 18.6248C46.484 20.156 47.8031 21.084 50.0833 21.5944L52.8441 22.1942C55.8733 22.8538 57.9414 24.6832 57.9414 27.8914C57.9414 31.9713 54.8823 34.4006 50.5042 34.4006C45.5825 34.3973 42.8549 31.7293 42.5533 27.5898ZM70.8173 40.0746V34.1057L71.0526 31.4874H70.8173C69.992 33.3699 68.2587 34.4006 65.9055 34.4006C62.1107 34.4006 59.287 31.3117 59.287 26.5757C59.287 21.8396 62.1107 18.7507 65.9055 18.7507C68.2288 18.7507 69.876 19.8378 70.8173 21.5446H71.0526V19.0424H74.1713V40.0746H70.8173ZM70.9333 26.5724C70.9333 23.5431 69.0806 21.7766 66.8136 21.7766C64.5467 21.7766 62.694 23.5431 62.694 26.5724C62.694 29.6016 64.5467 31.3681 66.8136 31.3681C69.0806 31.3681 70.9333 29.6049 70.9333 26.5724ZM76.6603 28.1334V19.0424H80.0143V27.8384C80.0143 30.2214 81.161 31.3681 83.0734 31.3681C85.4265 31.3681 86.9577 29.6911 86.9577 27.0728V19.0424H90.3117V34.1023H87.193V30.9836H86.9577C86.2219 32.9854 84.6045 34.3973 82.1056 34.3973C78.5129 34.3973 76.6603 32.1039 76.6603 28.1334ZM92.3533 29.8966C92.3533 27.0728 94.3252 25.4256 97.8251 25.2202L101.971 24.955V23.7785C101.971 22.3666 100.94 21.5148 99.1177 21.5148C97.4406 21.5148 96.4397 22.3666 96.1746 23.573H92.8206C93.1752 20.5139 95.704 18.7474 99.1143 18.7474C102.969 18.7474 105.322 20.3946 105.322 23.573V34.1023H102.203V31.3084H101.968C101.262 33.1611 99.7905 34.3973 96.9667 34.3973C94.2656 34.3973 92.3533 32.5745 92.3533 29.8966ZM101.975 28.0439V27.2485L98.5907 27.4838C96.7679 27.5998 95.9426 28.2792 95.9426 29.6314C95.9426 30.7782 96.8839 31.6034 98.2062 31.6034C100.592 31.6034 101.975 30.0755 101.975 28.0439ZM107.824 34.1057V19.0424H110.943V21.9258H111.178C111.619 19.9538 113.12 19.0424 115.354 19.0424H116.885V22.0716H114.973C112.796 22.0716 111.178 23.4835 111.178 26.1614V34.1023H107.824V34.1057ZM132.23 27.1921H120.786C120.962 29.9562 122.904 31.5172 125.052 31.5172C126.875 31.5172 128.021 30.7815 128.671 29.5452H131.995C131.084 32.6043 128.406 34.3973 125.022 34.3973C120.581 34.3973 117.462 31.0731 117.462 26.5724C117.462 22.0716 120.667 18.7474 125.052 18.7474C129.463 18.7474 132.346 21.7766 132.346 25.5416C132.35 26.2807 132.29 26.6619 132.23 27.1921ZM129.025 24.8688C128.909 22.7809 127.173 21.369 125.055 21.369C123.053 21.369 121.379 22.635 120.965 24.8688H129.025Z" fill="#301B69" fill-opacity="0.48"/>
</g>
<defs>
<clipPath id="clip0_1_1131">
<rect width="132" height="48" fill="white" transform="translate(0.600098 0.111084)"/>
</clipPath>
</defs>
</svg>
