<svg width="98" height="49" viewBox="0 0 98 49" fill="none" xmlns="http://www.w3.org/2000/svg">
<path fill-rule="evenodd" clip-rule="evenodd" d="M79.7073 20.7083C80.0815 21.3539 80.2039 22.0885 80.2443 22.9143L80.2975 24.015V31.7118L80.3517 32.8136C80.4603 34.6131 81.7874 35.9436 83.6007 36.0568L84.6968 36.1111V24.015L84.7511 22.9143C84.7961 22.0978 84.9174 21.3493 85.2974 20.6991C85.6846 20.0321 86.2404 19.4788 86.9091 19.0946C87.5778 18.7104 88.3358 18.5089 89.107 18.5103C89.8782 18.5117 90.6355 18.7159 91.3028 19.1026C91.97 19.4892 92.5239 20.0446 92.9086 20.7129C93.2829 21.3586 93.3995 22.107 93.4446 22.9143L93.4988 24.0115V31.7118L93.5531 32.8136C93.6663 34.6223 94.983 35.9529 96.8021 36.0568L97.8981 36.1111V22.9143C97.8981 20.5808 96.9714 18.3427 95.3216 16.6924C93.6719 15.042 91.4342 14.1143 89.1007 14.1134C87.8517 14.1121 86.6168 14.3773 85.4786 14.8914C84.3403 15.4054 83.3248 16.1565 82.5 17.0944C81.6748 16.1569 80.6593 15.406 79.5211 14.8918C78.3829 14.3776 77.1482 14.1118 75.8993 14.1122C74.0721 14.1122 72.3766 14.6666 70.9722 15.6241C70.1152 14.6678 68.1979 14.1122 67.0972 14.1122V36.1111L68.1979 36.0568C70.039 35.9355 71.3695 34.6408 71.4411 32.8136L71.5 31.7118V24.015L71.5543 22.9143C71.6005 22.0839 71.716 21.3539 72.0913 20.7037C72.4789 20.0371 73.0345 19.4839 73.7027 19.0993C74.3709 18.7146 75.1283 18.5119 75.8993 18.5115C76.6709 18.5117 77.4289 18.7148 78.0973 19.1003C78.7656 19.4859 79.3209 20.0404 79.7073 20.7083ZM4.39931 36.058L5.5 36.1111H21.9988L21.9446 35.0139C21.7956 33.2052 20.5147 31.8839 18.7002 31.7661L17.5995 31.7118H7.70139L20.8982 18.5104L20.8439 17.4143C20.7584 15.5871 19.4232 14.267 17.5995 14.1665L16.4988 14.1169L0 14.1122L0.0542839 15.2129C0.198656 17.0043 1.498 18.3533 3.29746 18.4573L4.39931 18.5115H14.2975L1.10069 31.7129L1.15498 32.8136C1.26354 34.6269 2.57213 35.9401 4.39931 36.0568V36.058ZM62.7788 17.3323C63.8004 18.3537 64.6107 19.5663 65.1636 20.9009C65.7165 22.2355 66.0011 23.6659 66.0011 25.1105C66.0011 26.5551 65.7165 27.9855 65.1636 29.3201C64.6107 30.6547 63.8004 31.8673 62.7788 32.8887C60.7148 34.951 57.9165 36.1094 54.9988 36.1094C52.0812 36.1094 49.2829 34.951 47.2189 32.8887C42.9236 28.5933 42.9236 21.6277 47.2189 17.3323C48.2396 16.3113 49.4513 15.5013 50.785 14.9486C52.1187 14.3959 53.5482 14.1113 54.9919 14.1111C56.4379 14.1101 57.87 14.3942 59.2061 14.9471C60.5423 15.5 61.7563 16.3109 62.7788 17.3335V17.3323ZM59.6661 20.4473C60.9033 21.6854 61.5983 23.3642 61.5983 25.1146C61.5983 26.8649 60.9033 28.5437 59.6661 29.7818C58.4279 31.019 56.7492 31.714 54.9988 31.714C53.2485 31.714 51.5697 31.019 50.3316 29.7818C49.0944 28.5437 48.3994 26.8649 48.3994 25.1146C48.3994 23.3642 49.0944 21.6854 50.3316 20.4473C51.5697 19.2101 53.2485 18.5151 54.9988 18.5151C56.7492 18.5151 58.4279 19.2101 59.6661 20.4473ZM31.9062 14.1111C33.35 14.1115 34.7795 14.3962 36.1133 14.9491C37.4469 15.502 38.6587 16.3122 39.6792 17.3335C43.9757 21.6277 43.9757 28.5945 39.6792 32.8887C37.6153 34.951 34.817 36.1094 31.8993 36.1094C28.9816 36.1094 26.1833 34.951 24.1194 32.8887C19.824 28.5933 19.824 21.6277 24.1194 17.3323C25.14 16.3113 26.3518 15.5013 27.6855 14.9486C29.0192 14.3959 30.4487 14.1113 31.8924 14.1111H31.9062ZM36.5666 20.445C37.8041 21.6832 38.4994 23.3622 38.4994 25.1128C38.4994 26.8635 37.8041 28.5425 36.5666 29.7807C35.3284 31.0179 33.6497 31.7129 31.8993 31.7129C30.1489 31.7129 28.4702 31.0179 27.232 29.7807C25.9948 28.5425 25.2998 26.8638 25.2998 25.1134C25.2998 23.363 25.9948 21.6843 27.232 20.4461C28.4702 19.2089 30.1489 18.5139 31.8993 18.5139C33.6497 18.5139 35.3284 19.2089 36.5666 20.4461V20.445Z" fill="#301B69" fill-opacity="0.48"/>
</svg>
