<svg width="26" height="26" viewBox="0 0 26 26" fill="none" xmlns="http://www.w3.org/2000/svg">
<path d="M2.37535 1.59549C2.164 1.59921 1.96271 1.68643 1.81545 1.83808C1.66819 1.98973 1.58693 2.19345 1.58941 2.40482V23.2033C1.5886 23.4155 1.6721 23.6192 1.82153 23.7699C1.97097 23.9205 2.17412 24.0056 2.38629 24.0064H23.1925C23.2991 24.0088 23.405 23.9899 23.5042 23.9507C23.6033 23.9116 23.6936 23.8531 23.7698 23.7785C23.846 23.704 23.9065 23.615 23.9479 23.5168C23.9892 23.4185 24.0105 23.313 24.0105 23.2064C24.0105 23.0999 23.9892 22.9944 23.9479 22.8961C23.9065 22.7979 23.846 22.7089 23.7698 22.6343C23.6936 22.5598 23.6033 22.5013 23.5042 22.4622C23.405 22.423 23.2991 22.4041 23.1925 22.4064H3.19097V2.40482C3.19224 2.29765 3.17196 2.19138 3.13134 2.0922C3.09072 1.99302 3.03058 1.90296 2.95451 1.82747C2.87843 1.75197 2.78796 1.69255 2.68847 1.6527C2.58899 1.61284 2.4825 1.5934 2.37535 1.59549ZM23.1738 6.79705C22.9665 6.80364 22.7699 6.8905 22.6253 7.03926L14.416 15.2487L10.98 11.469C10.8373 11.3126 10.6384 11.2193 10.427 11.2093C10.2155 11.1993 10.0087 11.2735 9.85191 11.4157L5.05035 15.8157C4.97277 15.8867 4.90993 15.9723 4.86543 16.0676C4.82092 16.1629 4.79562 16.2659 4.79097 16.371C4.78632 16.476 4.80241 16.581 4.83832 16.6798C4.87423 16.7787 4.92925 16.8695 5.00026 16.9471C5.07126 17.0246 5.15685 17.0875 5.25213 17.132C5.34741 17.1765 5.45053 17.2017 5.55558 17.2063C5.66064 17.211 5.76558 17.1948 5.86442 17.1589C5.96325 17.123 6.05404 17.068 6.1316 16.997L10.3425 13.1407L13.7972 16.9438C13.8699 17.0239 13.958 17.0885 14.0562 17.1335C14.1545 17.1786 14.2608 17.2032 14.3689 17.2061C14.4769 17.2089 14.5845 17.1898 14.6849 17.15C14.7854 17.1101 14.8768 17.0502 14.9535 16.9741L23.7535 8.16943C23.8678 8.05696 23.9458 7.91271 23.9771 7.7554C24.0085 7.59809 23.9918 7.43502 23.9293 7.28729C23.8668 7.13957 23.7614 7.01401 23.6267 6.92697C23.4919 6.83992 23.3341 6.7933 23.1738 6.79705Z" fill="#854EFF"/>
</svg>
