<svg width="26" height="26" viewBox="0 0 26 26" fill="none" xmlns="http://www.w3.org/2000/svg">
<path d="M2.3335 20.9999C2.3335 19.7429 2.3335 19.1143 2.80213 18.7238C3.27075 18.3333 4.02501 18.3333 5.5335 18.3333C7.04199 18.3333 7.79624 18.3333 8.26487 18.7238C8.7335 19.1143 8.7335 19.7429 8.7335 20.9999C8.7335 22.257 8.7335 22.8856 8.26487 23.2761C7.79624 23.6666 7.04199 23.6666 5.5335 23.6666C4.02501 23.6666 3.27075 23.6666 2.80213 23.2761C2.3335 22.8856 2.3335 22.257 2.3335 20.9999Z" stroke="#854EFF" stroke-width="1.7"/>
<path d="M17.2666 20.9999C17.2666 19.7429 17.2666 19.1143 17.7352 18.7238C18.2039 18.3333 18.9581 18.3333 20.4666 18.3333C21.9751 18.3333 22.7293 18.3333 23.198 18.7238C23.6666 19.1143 23.6666 19.7429 23.6666 20.9999C23.6666 22.257 23.6666 22.8856 23.198 23.2761C22.7293 23.6666 21.9751 23.6666 20.4666 23.6666C18.9581 23.6666 18.2039 23.6666 17.7352 23.2761C17.2666 22.8856 17.2666 22.257 17.2666 20.9999Z" stroke="#854EFF" stroke-width="1.7"/>
<path d="M20.4668 18.3333C20.4668 15.6858 19.6734 15.1333 15.8719 15.1333H10.1283C6.32682 15.1333 5.53345 15.6858 5.53345 18.3333" stroke="#854EFF" stroke-width="1.7" stroke-linecap="round" stroke-linejoin="round"/>
<path d="M13 7.13325L14.0666 5.53325M17.8 7.13325C17.8 9.78422 15.6509 11.9333 13 11.9333C10.349 11.9333 8.19995 9.78422 8.19995 7.13325C8.19995 4.48229 10.349 2.33325 13 2.33325C15.6509 2.33325 17.8 4.48229 17.8 7.13325Z" stroke="#854EFF" stroke-width="1.7" stroke-linecap="round"/>
</svg>
