<svg width="21" height="21" viewBox="0 0 21 21" fill="none" xmlns="http://www.w3.org/2000/svg">
<path d="M7.375 18.4666H13.625" stroke="#301B69" stroke-width="1.5" stroke-linecap="round" stroke-linejoin="round"/>
<path d="M6.64873 13.3893C5.90556 12.8089 5.30363 12.0675 4.88818 11.221C4.47273 10.3745 4.25457 9.44477 4.2501 8.5018C4.23138 5.11412 6.9625 2.29802 10.3493 2.2183C11.6617 2.1867 12.9507 2.56914 14.0335 3.31136C15.1164 4.05358 15.938 5.1179 16.3819 6.35336C16.8258 7.58881 16.8694 8.93267 16.5065 10.1943C16.1437 11.4559 15.3928 12.5713 14.3604 13.3822C14.133 13.5583 13.9486 13.7839 13.8212 14.0418C13.6938 14.2997 13.6267 14.5832 13.625 14.8709L13.625 15.3415C13.625 15.5073 13.5592 15.6663 13.442 15.7835C13.3247 15.9007 13.1658 15.9665 13 15.9665H7.99999C7.83423 15.9665 7.67526 15.9007 7.55805 15.7835C7.44084 15.6663 7.37499 15.5073 7.37499 15.3415L7.37498 14.8704C7.37427 14.5846 7.30851 14.3027 7.18268 14.0461C7.05685 13.7895 6.87425 13.5649 6.64873 13.3893V13.3893Z" stroke="#301B69" stroke-width="1.5" stroke-linecap="round" stroke-linejoin="round"/>
<path d="M11.1345 4.77783C11.899 4.90777 12.6042 5.27187 13.1529 5.81985C13.7015 6.36782 14.0665 7.07262 14.1974 7.83693" stroke="#301B69" stroke-width="1.5" stroke-linecap="round" stroke-linejoin="round"/>
</svg>
