<svg width="274" height="275" viewBox="0 0 274 275" fill="none" xmlns="http://www.w3.org/2000/svg">
<mask id="path-1-inside-1_237_110" fill="white">
<path d="M259.942 66.6505C268.943 75.6522 274 87.8612 274 100.592V226.057C274 237.655 269.887 248.292 263.04 256.589C262.433 257.325 261.801 258.039 261.152 258.737C259.97 260.007 258.724 261.216 257.413 262.352C256.251 263.358 255.041 264.308 253.787 265.201C253.159 265.647 252.521 266.078 251.872 266.495C251.222 266.911 250.563 267.312 249.893 267.698C248.553 268.468 247.172 269.176 245.754 269.817C245.046 270.137 244.328 270.44 243.601 270.727C243.238 270.87 242.872 271.009 242.504 271.144C242.137 271.279 241.767 271.409 241.395 271.535C238.793 272.415 236.091 273.078 233.31 273.503C232.317 273.655 231.314 273.777 230.302 273.867C228.885 273.992 227.45 274.057 226 274.057H100.535C87.8047 274.057 75.5957 269 66.594 259.998L14.3357 207.74C5.334 198.738 0.276855 186.529 0.276855 173.799V48.3334C0.276855 45.2266 0.572431 42.1888 1.13623 39.2465C1.3993 37.8735 1.72079 36.5214 2.09814 35.1927C2.42161 34.0538 2.78617 32.9322 3.18994 31.8295C3.72836 30.359 4.33608 28.9219 5.01025 27.5228C5.34723 26.8235 5.70044 26.1335 6.06982 25.4535C6.43928 24.7734 6.8252 24.1035 7.22607 23.4437C11.2349 16.846 16.7895 11.2914 23.3872 7.28259C24.047 6.88171 24.7169 6.49581 25.397 6.12634C30.158 3.54001 35.4057 1.73584 40.9673 0.886108C41.7618 0.764711 42.5628 0.663356 43.3696 0.581421C44.9831 0.41759 46.6202 0.333374 48.2769 0.333374H173.742C186.473 0.333374 198.682 5.3905 207.683 14.3922L259.942 66.6505Z"/>
</mask>
<path d="M259.942 66.6505C268.943 75.6522 274 87.8612 274 100.592V226.057C274 237.655 269.887 248.292 263.04 256.589C262.433 257.325 261.801 258.039 261.152 258.737C259.97 260.007 258.724 261.216 257.413 262.352C256.251 263.358 255.041 264.308 253.787 265.201C253.159 265.647 252.521 266.078 251.872 266.495C251.222 266.911 250.563 267.312 249.893 267.698C248.553 268.468 247.172 269.176 245.754 269.817C245.046 270.137 244.328 270.44 243.601 270.727C243.238 270.87 242.872 271.009 242.504 271.144C242.137 271.279 241.767 271.409 241.395 271.535C238.793 272.415 236.091 273.078 233.31 273.503C232.317 273.655 231.314 273.777 230.302 273.867C228.885 273.992 227.45 274.057 226 274.057H100.535C87.8047 274.057 75.5957 269 66.594 259.998L14.3357 207.74C5.334 198.738 0.276855 186.529 0.276855 173.799V48.3334C0.276855 45.2266 0.572431 42.1888 1.13623 39.2465C1.3993 37.8735 1.72079 36.5214 2.09814 35.1927C2.42161 34.0538 2.78617 32.9322 3.18994 31.8295C3.72836 30.359 4.33608 28.9219 5.01025 27.5228C5.34723 26.8235 5.70044 26.1335 6.06982 25.4535C6.43928 24.7734 6.8252 24.1035 7.22607 23.4437C11.2349 16.846 16.7895 11.2914 23.3872 7.28259C24.047 6.88171 24.7169 6.49581 25.397 6.12634C30.158 3.54001 35.4057 1.73584 40.9673 0.886108C41.7618 0.764711 42.5628 0.663356 43.3696 0.581421C44.9831 0.41759 46.6202 0.333374 48.2769 0.333374H173.742C186.473 0.333374 198.682 5.3905 207.683 14.3922L259.942 66.6505Z" fill="url(#paint0_linear_237_110)"/>
<path d="M274 226.057H275H274ZM263.04 256.589L263.811 257.226L263.04 256.589ZM261.152 258.737L260.42 258.056L261.152 258.737ZM257.413 262.352L258.067 263.108H258.067L257.413 262.352ZM253.787 265.201L253.207 264.386H253.207L253.787 265.201ZM251.872 266.495L252.411 267.336L251.872 266.495ZM249.893 267.698L249.395 266.831V266.831L249.893 267.698ZM245.754 269.817L246.166 270.728H246.166L245.754 269.817ZM243.601 270.727L243.234 269.797L243.234 269.797L243.601 270.727ZM242.504 271.144L242.848 272.083H242.848L242.504 271.144ZM241.395 271.535L241.074 270.587L241.395 271.535ZM233.31 273.503L233.461 274.492H233.461L233.31 273.503ZM230.302 273.867L230.214 272.87V272.871L230.302 273.867ZM226 274.057V275.057V274.057ZM1.13623 39.2465L2.11836 39.4347L1.13623 39.2465ZM2.09814 35.1927L1.13619 34.9195H1.13619L2.09814 35.1927ZM3.18994 31.8295L4.12897 32.1733L4.12897 32.1733L3.18994 31.8295ZM5.01025 27.5228L4.10939 27.0887L4.10939 27.0887L5.01025 27.5228ZM6.06982 25.4535L6.94854 25.9308L6.94854 25.9308L6.06982 25.4535ZM7.22607 23.4437L6.37147 22.9245L6.37146 22.9245L7.22607 23.4437ZM23.3872 7.28259L23.9065 8.1372L23.9065 8.1372L23.3872 7.28259ZM25.397 6.12634L24.9196 5.24763L24.9196 5.24763L25.397 6.12634ZM40.9673 0.886108L41.1183 1.87464L41.1183 1.87464L40.9673 0.886108ZM43.3696 0.581421L43.2686 -0.413463L43.2686 -0.413462L43.3696 0.581421ZM48.2769 0.333374V-0.666626V0.333374ZM14.3357 207.74L13.6286 208.447L14.3357 207.74ZM66.594 259.998L65.8868 260.705L66.594 259.998ZM259.942 66.6505L260.649 65.9434L259.942 66.6505ZM274 100.592H273V226.057H274H275V100.592H274ZM274 226.057H273C273 237.414 268.973 247.828 262.268 255.953L263.04 256.589L263.811 257.226C270.801 248.756 275 237.896 275 226.057H274ZM263.04 256.589L262.268 255.953C261.676 256.671 261.057 257.37 260.42 258.056L261.152 258.737L261.884 259.418C262.544 258.708 263.189 257.979 263.811 257.226L263.04 256.589ZM261.152 258.737L260.42 258.056C259.262 259.301 258.041 260.485 256.758 261.596L257.413 262.352L258.067 263.108C259.407 261.947 260.679 260.713 261.884 259.418L261.152 258.737ZM257.413 262.352L256.758 261.596C255.621 262.581 254.436 263.512 253.207 264.386L253.787 265.201L254.366 266.016C255.647 265.105 256.882 264.135 258.067 263.108L257.413 262.352ZM253.787 265.201L253.207 264.386C252.593 264.823 251.967 265.245 251.332 265.653L251.872 266.495L252.411 267.336C253.074 266.911 253.726 266.471 254.366 266.016L253.787 265.201ZM251.872 266.495L251.332 265.653C250.696 266.061 250.05 266.454 249.395 266.831L249.893 267.698L250.392 268.565C251.076 268.171 251.749 267.761 252.411 267.336L251.872 266.495ZM249.893 267.698L249.395 266.831C248.082 267.585 246.73 268.278 245.342 268.906L245.754 269.817L246.166 270.728C247.614 270.074 249.023 269.351 250.392 268.565L249.893 267.698ZM245.754 269.817L245.342 268.906C244.649 269.219 243.946 269.516 243.234 269.797L243.601 270.727L243.968 271.657C244.709 271.365 245.442 271.055 246.166 270.728L245.754 269.817ZM243.601 270.727L243.234 269.797C242.878 269.937 242.52 270.073 242.161 270.205L242.504 271.144L242.848 272.083C243.224 271.945 243.597 271.803 243.968 271.657L243.601 270.727ZM242.504 271.144L242.161 270.205C241.801 270.337 241.439 270.464 241.074 270.587L241.395 271.535L241.716 272.482C242.095 272.353 242.473 272.22 242.848 272.083L242.504 271.144ZM241.395 271.535L241.074 270.587C238.527 271.449 235.882 272.099 233.159 272.515L233.31 273.503L233.461 274.492C236.3 274.058 239.059 273.381 241.716 272.482L241.395 271.535ZM233.31 273.503L233.159 272.515C232.187 272.663 231.205 272.783 230.214 272.87L230.302 273.867L230.391 274.863C231.424 274.771 232.448 274.647 233.461 274.492L233.31 273.503ZM230.302 273.867L230.214 272.871C228.826 272.994 227.421 273.057 226 273.057V274.057V275.057C227.48 275.057 228.944 274.991 230.391 274.863L230.302 273.867ZM226 274.057V273.057H100.535V274.057V275.057H226V274.057ZM66.594 259.998L67.3011 259.291L15.0429 207.033L14.3357 207.74L13.6286 208.447L65.8868 260.705L66.594 259.998ZM0.276855 173.799H1.27686V48.3334H0.276855H-0.723145V173.799H0.276855ZM0.276855 48.3334H1.27686C1.27686 45.2902 1.56637 42.3154 2.11836 39.4347L1.13623 39.2465L0.154098 39.0583C-0.421509 42.0623 -0.723145 45.163 -0.723145 48.3334H0.276855ZM1.13623 39.2465L2.11836 39.4347C2.37593 38.0904 2.69068 36.7667 3.0601 35.466L2.09814 35.1927L1.13619 34.9195C0.7509 36.2761 0.42267 37.6566 0.154098 39.0583L1.13623 39.2465ZM2.09814 35.1927L3.0601 35.466C3.37676 34.351 3.73366 33.2529 4.12897 32.1733L3.18994 31.8295L2.25091 31.4856C1.83869 32.6115 1.46647 33.7566 1.13619 34.9195L2.09814 35.1927ZM3.18994 31.8295L4.12897 32.1733C4.65619 30.7334 5.25117 29.3265 5.91112 27.9569L5.01025 27.5228L4.10939 27.0887C3.42099 28.5174 2.80054 29.9845 2.25091 31.4856L3.18994 31.8295ZM5.01025 27.5228L5.91112 27.9569C6.24115 27.272 6.58697 26.5964 6.94854 25.9308L6.06982 25.4535L5.19111 24.9761C4.8139 25.6705 4.45332 26.375 4.10939 27.0887L5.01025 27.5228ZM6.06982 25.4535L6.94854 25.9308C7.31005 25.2654 7.6879 24.6094 8.08068 23.963L7.22607 23.4437L6.37146 22.9245C5.9625 23.5975 5.56852 24.2814 5.19111 24.9761L6.06982 25.4535ZM7.22607 23.4437L8.08068 23.963C12.0063 17.5023 17.4458 12.0628 23.9065 8.1372L23.3872 7.28259L22.8679 6.42798C16.1331 10.5201 10.4636 16.1897 6.37147 22.9245L7.22607 23.4437ZM23.3872 7.28259L23.9065 8.1372C24.5529 7.74442 25.2088 7.36658 25.8743 7.00505L25.397 6.12634L24.9196 5.24763C24.2249 5.62504 23.541 6.01901 22.8679 6.42799L23.3872 7.28259ZM25.397 6.12634L25.8743 7.00506C30.5357 4.47284 35.6732 2.70657 41.1183 1.87464L40.9673 0.886108L40.8163 -0.10242C35.1381 0.765116 29.7803 2.60718 24.9196 5.24763L25.397 6.12634ZM40.9673 0.886108L41.1183 1.87464C41.8958 1.75584 42.6801 1.65659 43.4707 1.5763L43.3696 0.581421L43.2686 -0.413462C42.4455 -0.329874 41.6278 -0.226421 40.8162 -0.102419L40.9673 0.886108ZM43.3696 0.581421L43.4707 1.5763C45.0507 1.41586 46.6541 1.33337 48.2769 1.33337V0.333374V-0.666626C46.5863 -0.666626 44.9154 -0.580686 43.2686 -0.413463L43.3696 0.581421ZM48.2769 0.333374V1.33337H173.742V0.333374V-0.666626H48.2769V0.333374ZM207.683 14.3922L206.976 15.0994L259.234 67.3576L259.942 66.6505L260.649 65.9434L208.39 13.6851L207.683 14.3922ZM173.742 0.333374V1.33337C186.207 1.33337 198.162 6.28515 206.976 15.0994L207.683 14.3922L208.39 13.6851C199.201 4.49586 186.738 -0.666626 173.742 -0.666626V0.333374ZM14.3357 207.74L15.0429 207.033C6.22864 198.219 1.27686 186.264 1.27686 173.799H0.276855H-0.723145C-0.723145 186.794 4.43935 199.258 13.6286 208.447L14.3357 207.74ZM100.535 274.057V273.057C88.0699 273.057 76.1153 268.105 67.3011 259.291L66.594 259.998L65.8868 260.705C75.0761 269.895 87.5395 275.057 100.535 275.057V274.057ZM274 100.592H275C275 87.596 269.838 75.1326 260.649 65.9434L259.942 66.6505L259.234 67.3576C268.049 76.1718 273 88.1264 273 100.592H274Z" fill="url(#paint1_linear_237_110)" mask="url(#path-1-inside-1_237_110)"/>
<defs>
<linearGradient id="paint0_linear_237_110" x1="339" y1="-116.5" x2="-168.931" y2="369.67" gradientUnits="userSpaceOnUse">
<stop stop-color="#DFE0FF"/>
<stop offset="1" stop-color="#FFF4EA"/>
</linearGradient>
<linearGradient id="paint1_linear_237_110" x1="137.139" y1="0.333374" x2="137.139" y2="274.057" gradientUnits="userSpaceOnUse">
<stop stop-color="#7D87F3" stop-opacity="0.1"/>
<stop offset="1" stop-color="#666666" stop-opacity="0"/>
</linearGradient>
</defs>
</svg>
