<svg width="274" height="274" viewBox="0 0 274 274" fill="none" xmlns="http://www.w3.org/2000/svg">
<mask id="path-1-inside-1_237_94" fill="white">
<path d="M259.314 66.3858C268.316 75.3876 273.373 87.5966 273.373 100.327V225.793C273.373 252.303 251.882 273.793 225.373 273.793H99.9943C87.2639 273.793 75.0549 268.736 66.0532 259.734L14.0586 207.74C5.05689 198.738 -0.000244141 186.529 -0.000244141 173.799V48.3334C-0.000244141 21.8237 21.4901 0.333376 47.9998 0.333374H173.379C186.11 0.333374 198.319 5.3905 207.32 14.3922L259.314 66.3858Z"/>
</mask>
<path d="M259.314 66.3858C268.316 75.3876 273.373 87.5966 273.373 100.327V225.793C273.373 252.303 251.882 273.793 225.373 273.793H99.9943C87.2639 273.793 75.0549 268.736 66.0532 259.734L14.0586 207.74C5.05689 198.738 -0.000244141 186.529 -0.000244141 173.799V48.3334C-0.000244141 21.8237 21.4901 0.333376 47.9998 0.333374H173.379C186.11 0.333374 198.319 5.3905 207.32 14.3922L259.314 66.3858Z" fill="url(#paint0_linear_237_94)"/>
<path d="M273.373 225.793H274.373H273.373ZM225.373 273.793V274.793V273.793ZM47.9998 0.333374V-0.666626V0.333374ZM14.0586 207.74L13.3515 208.447L14.0586 207.74ZM66.0532 259.734L65.3461 260.442L66.0532 259.734ZM259.314 66.3858L260.021 65.6787L259.314 66.3858ZM273.373 100.327H272.373V225.793H273.373H274.373V100.327H273.373ZM273.373 225.793H272.373C272.373 251.751 251.33 272.793 225.373 272.793V273.793V274.793C252.435 274.793 274.373 252.855 274.373 225.793H273.373ZM225.373 273.793V272.793H99.9943V273.793V274.793H225.373V273.793ZM66.0532 259.734L66.7603 259.027L14.7657 207.033L14.0586 207.74L13.3515 208.447L65.3461 260.442L66.0532 259.734ZM-0.000244141 173.799H0.999756V48.3334H-0.000244141H-1.00024V173.799H-0.000244141ZM-0.000244141 48.3334H0.999756C0.999756 22.376 22.0424 1.33338 47.9998 1.33337V0.333374V-0.666626C20.9378 -0.666624 -1.00024 21.2714 -1.00024 48.3334H-0.000244141ZM47.9998 0.333374V1.33337H173.379V0.333374V-0.666626H47.9998V0.333374ZM207.32 14.3922L206.613 15.0994L258.607 67.0929L259.314 66.3858L260.021 65.6787L208.027 13.6851L207.32 14.3922ZM173.379 0.333374V1.33337C185.844 1.33337 197.799 6.28515 206.613 15.0994L207.32 14.3922L208.027 13.6851C198.838 4.49586 186.375 -0.666626 173.379 -0.666626V0.333374ZM14.0586 207.74L14.7657 207.033C5.95153 198.219 0.999756 186.264 0.999756 173.799H-0.000244141H-1.00024C-1.00024 186.794 4.16224 199.258 13.3515 208.447L14.0586 207.74ZM99.9943 273.793V272.793C87.5291 272.793 75.5745 267.842 66.7603 259.027L66.0532 259.734L65.3461 260.442C74.5354 269.631 86.9987 274.793 99.9943 274.793V273.793ZM273.373 100.327H274.373C274.373 87.3313 269.21 74.868 260.021 65.6787L259.314 66.3858L258.607 67.0929C267.421 75.9071 272.373 87.8618 272.373 100.327H273.373Z" fill="url(#paint1_linear_237_94)" mask="url(#path-1-inside-1_237_94)"/>
<defs>
<linearGradient id="paint0_linear_237_94" x1="-4.70369e-06" y1="3.26333e-06" x2="223.513" y2="322.562" gradientUnits="userSpaceOnUse">
<stop stop-color="#DFE0FF"/>
<stop offset="1" stop-color="#FFF4EA"/>
</linearGradient>
<linearGradient id="paint1_linear_237_94" x1="136.686" y1="0.333374" x2="136.686" y2="273.793" gradientUnits="userSpaceOnUse">
<stop stop-color="#7D87F3" stop-opacity="0.1"/>
<stop offset="1" stop-color="#666666" stop-opacity="0"/>
</linearGradient>
</defs>
</svg>
