<svg width="275" height="275" viewBox="0 0 275 275" fill="none" xmlns="http://www.w3.org/2000/svg">
<mask id="path-1-inside-1_237_102" fill="white">
<path d="M260.523 66.6505C269.525 75.6522 274.582 87.8612 274.582 100.592V226.057C274.582 226.264 274.581 226.471 274.578 226.677C274.573 227.09 274.562 227.502 274.547 227.912C274.531 228.323 274.51 228.732 274.484 229.139C274.459 229.547 274.428 229.954 274.392 230.359C274.302 231.371 274.18 232.374 274.028 233.367C273.725 235.353 273.3 237.299 272.761 239.198C271.898 242.235 270.744 245.149 269.331 247.909C268.978 248.598 268.608 249.279 268.223 249.949C267.837 250.619 267.436 251.279 267.02 251.928C266.603 252.577 266.172 253.216 265.726 253.843C264.387 255.725 262.917 257.507 261.327 259.174C260.798 259.73 260.255 260.272 259.699 260.802C258.032 262.392 256.25 263.862 254.368 265.201C253.741 265.647 253.102 266.078 252.453 266.495C251.804 266.911 251.144 267.312 250.474 267.698C249.804 268.083 249.123 268.453 248.434 268.806C245.674 270.219 242.76 271.373 239.723 272.236C237.824 272.775 235.878 273.2 233.892 273.503C232.899 273.655 231.896 273.777 230.884 273.867C230.479 273.903 230.072 273.934 229.664 273.959C229.257 273.985 228.848 274.006 228.438 274.022C228.027 274.037 227.615 274.048 227.202 274.053C226.996 274.056 226.789 274.057 226.582 274.057H101.117C88.3862 274.057 76.1772 269 67.1755 259.998L14.9173 207.74C5.91554 198.738 0.858398 186.529 0.858398 173.799V48.3334C0.858398 21.8237 22.3487 0.333376 48.8584 0.333374H174.324C187.054 0.333374 199.263 5.3905 208.265 14.3922L260.523 66.6505Z"/>
</mask>
<path d="M260.523 66.6505C269.525 75.6522 274.582 87.8612 274.582 100.592V226.057C274.582 226.264 274.581 226.471 274.578 226.677C274.573 227.09 274.562 227.502 274.547 227.912C274.531 228.323 274.51 228.732 274.484 229.139C274.459 229.547 274.428 229.954 274.392 230.359C274.302 231.371 274.18 232.374 274.028 233.367C273.725 235.353 273.3 237.299 272.761 239.198C271.898 242.235 270.744 245.149 269.331 247.909C268.978 248.598 268.608 249.279 268.223 249.949C267.837 250.619 267.436 251.279 267.02 251.928C266.603 252.577 266.172 253.216 265.726 253.843C264.387 255.725 262.917 257.507 261.327 259.174C260.798 259.73 260.255 260.272 259.699 260.802C258.032 262.392 256.25 263.862 254.368 265.201C253.741 265.647 253.102 266.078 252.453 266.495C251.804 266.911 251.144 267.312 250.474 267.698C249.804 268.083 249.123 268.453 248.434 268.806C245.674 270.219 242.76 271.373 239.723 272.236C237.824 272.775 235.878 273.2 233.892 273.503C232.899 273.655 231.896 273.777 230.884 273.867C230.479 273.903 230.072 273.934 229.664 273.959C229.257 273.985 228.848 274.006 228.438 274.022C228.027 274.037 227.615 274.048 227.202 274.053C226.996 274.056 226.789 274.057 226.582 274.057H101.117C88.3862 274.057 76.1772 269 67.1755 259.998L14.9173 207.74C5.91554 198.738 0.858398 186.529 0.858398 173.799V48.3334C0.858398 21.8237 22.3487 0.333376 48.8584 0.333374H174.324C187.054 0.333374 199.263 5.3905 208.265 14.3922L260.523 66.6505Z" fill="url(#paint0_linear_237_102)"/>
<path d="M274.582 226.057H275.582H274.582ZM274.578 226.677L273.578 226.664L274.578 226.677ZM274.547 227.912L275.546 227.95L274.547 227.912ZM274.484 229.139L273.486 229.076L274.484 229.139ZM274.392 230.359L275.388 230.447H275.388L274.392 230.359ZM274.028 233.367L275.017 233.518L274.028 233.367ZM272.761 239.198L271.799 238.924L272.761 239.198ZM269.331 247.909L270.221 248.364L269.331 247.909ZM268.223 249.949L267.356 249.45L268.223 249.949ZM267.02 251.928L267.861 252.468L267.02 251.928ZM265.726 253.843L264.911 253.264L265.726 253.843ZM261.327 259.174L262.051 259.864L261.327 259.174ZM259.699 260.802L260.389 261.526L259.699 260.802ZM254.368 265.201L253.789 264.386L254.368 265.201ZM252.453 266.495L252.993 267.336L252.453 266.495ZM250.474 267.698L249.975 266.831L250.474 267.698ZM248.434 268.806L248.889 269.696L248.434 268.806ZM239.723 272.236L239.449 271.274L239.723 272.236ZM233.892 273.503L234.043 274.492L233.892 273.503ZM230.884 273.867L230.972 274.863L230.884 273.867ZM229.664 273.959L229.601 272.961L229.664 273.959ZM228.438 274.022L228.475 275.021L228.438 274.022ZM227.202 274.053L227.189 273.053L227.202 274.053ZM226.582 274.057V275.057V274.057ZM48.8584 0.333374V-0.666626V0.333374ZM14.9173 207.74L14.2102 208.447L14.9173 207.74ZM67.1755 259.998L66.4684 260.705L67.1755 259.998ZM260.523 66.6505L261.23 65.9434L260.523 66.6505ZM274.582 100.592H273.582V226.057H274.582H275.582V100.592H274.582ZM274.582 226.057H273.582C273.582 226.26 273.581 226.462 273.578 226.664L274.578 226.677L275.578 226.69C275.581 226.479 275.582 226.268 275.582 226.057H274.582ZM274.578 226.677L273.578 226.664C273.573 227.069 273.563 227.473 273.548 227.874L274.547 227.912L275.546 227.95C275.562 227.531 275.573 227.111 275.578 226.69L274.578 226.677ZM274.547 227.912L273.548 227.874C273.532 228.276 273.512 228.676 273.486 229.076L274.484 229.139L275.482 229.202C275.509 228.787 275.53 228.37 275.546 227.95L274.547 227.912ZM274.484 229.139L273.486 229.076C273.461 229.475 273.431 229.874 273.396 230.27L274.392 230.359L275.388 230.447C275.424 230.034 275.456 229.619 275.482 229.202L274.484 229.139ZM274.392 230.359L273.396 230.27C273.308 231.261 273.188 232.243 273.04 233.216L274.028 233.367L275.017 233.518C275.172 232.504 275.296 231.48 275.388 230.447L274.392 230.359ZM274.028 233.367L273.04 233.216C272.743 235.161 272.327 237.066 271.799 238.924L272.761 239.198L273.723 239.471C274.273 237.532 274.707 235.545 275.017 233.518L274.028 233.367ZM272.761 239.198L271.799 238.924C270.954 241.898 269.825 244.751 268.441 247.453L269.331 247.909L270.221 248.364C271.664 245.547 272.842 242.572 273.723 239.471L272.761 239.198ZM269.331 247.909L268.441 247.453C268.095 248.128 267.733 248.794 267.356 249.45L268.223 249.949L269.09 250.447C269.483 249.763 269.86 249.069 270.221 248.364L269.331 247.909ZM268.223 249.949L267.356 249.45C266.979 250.106 266.586 250.752 266.178 251.388L267.02 251.928L267.861 252.468C268.286 251.805 268.696 251.132 269.09 250.447L268.223 249.949ZM267.02 251.928L266.178 251.388C265.77 252.024 265.348 252.649 264.911 253.264L265.726 253.843L266.541 254.423C266.996 253.782 267.436 253.131 267.861 252.468L267.02 251.928ZM265.726 253.843L264.911 253.264C263.6 255.107 262.16 256.852 260.603 258.484L261.327 259.174L262.051 259.864C263.673 258.162 265.174 256.344 266.541 254.423L265.726 253.843ZM261.327 259.174L260.603 258.484C260.085 259.028 259.553 259.56 259.009 260.078L259.699 260.802L260.389 261.526C260.956 260.985 261.51 260.431 262.051 259.864L261.327 259.174ZM259.699 260.802L259.009 260.078C257.377 261.635 255.632 263.075 253.789 264.386L254.368 265.201L254.948 266.016C256.869 264.649 258.687 263.148 260.389 261.526L259.699 260.802ZM254.368 265.201L253.789 264.386C253.174 264.823 252.549 265.245 251.913 265.653L252.453 266.495L252.993 267.336C253.656 266.911 254.307 266.471 254.948 266.016L254.368 265.201ZM252.453 266.495L251.913 265.653C251.277 266.06 250.631 266.454 249.975 266.831L250.474 267.698L250.972 268.565C251.657 268.171 252.33 267.761 252.993 267.336L252.453 266.495ZM250.474 267.698L249.975 266.831C249.319 267.208 248.653 267.57 247.978 267.916L248.434 268.806L248.889 269.696C249.594 269.335 250.288 268.958 250.972 268.565L250.474 267.698ZM248.434 268.806L247.978 267.916C245.276 269.3 242.423 270.429 239.449 271.274L239.723 272.236L239.996 273.198C243.097 272.317 246.072 271.139 248.889 269.696L248.434 268.806ZM239.723 272.236L239.449 271.274C237.591 271.802 235.686 272.218 233.741 272.515L233.892 273.503L234.043 274.492C236.07 274.182 238.057 273.748 239.996 273.198L239.723 272.236ZM233.892 273.503L233.741 272.515C232.768 272.663 231.786 272.783 230.795 272.87L230.884 273.867L230.972 274.863C232.005 274.771 233.029 274.647 234.043 274.492L233.892 273.503ZM230.884 273.867L230.795 272.87C230.399 272.906 230 272.936 229.601 272.961L229.664 273.959L229.727 274.957C230.144 274.931 230.559 274.899 230.972 274.863L230.884 273.867ZM229.664 273.959L229.601 272.961C229.201 272.987 228.801 273.007 228.4 273.023L228.438 274.022L228.475 275.021C228.895 275.005 229.312 274.984 229.727 274.957L229.664 273.959ZM228.438 274.022L228.4 273.023C227.998 273.038 227.594 273.048 227.189 273.053L227.202 274.053L227.215 275.053C227.636 275.048 228.057 275.037 228.475 275.021L228.438 274.022ZM227.202 274.053L227.189 273.053C226.987 273.056 226.785 273.057 226.582 273.057V274.057V275.057C226.793 275.057 227.004 275.056 227.215 275.053L227.202 274.053ZM226.582 274.057V273.057H101.117V274.057V275.057H226.582V274.057ZM67.1755 259.998L67.8826 259.291L15.6244 207.033L14.9173 207.74L14.2102 208.447L66.4684 260.705L67.1755 259.998ZM0.858398 173.799H1.8584V48.3334H0.858398H-0.141602V173.799H0.858398ZM0.858398 48.3334H1.8584C1.8584 22.376 22.901 1.33338 48.8584 1.33337V0.333374V-0.666626C21.7964 -0.666624 -0.141602 21.2714 -0.141602 48.3334H0.858398ZM48.8584 0.333374V1.33337H174.324V0.333374V-0.666626H48.8584V0.333374ZM208.265 14.3922L207.558 15.0994L259.816 67.3576L260.523 66.6505L261.23 65.9434L208.972 13.6851L208.265 14.3922ZM174.324 0.333374V1.33337C186.789 1.33337 198.744 6.28515 207.558 15.0994L208.265 14.3922L208.972 13.6851C199.783 4.49586 187.319 -0.666626 174.324 -0.666626V0.333374ZM14.9173 207.74L15.6244 207.033C6.81018 198.219 1.8584 186.264 1.8584 173.799H0.858398H-0.141602C-0.141602 186.794 5.0209 199.258 14.2102 208.447L14.9173 207.74ZM101.117 274.057V273.057C88.6515 273.057 76.6968 268.105 67.8826 259.291L67.1755 259.998L66.4684 260.705C75.6577 269.895 88.121 275.057 101.117 275.057V274.057ZM274.582 100.592H275.582C275.582 87.596 270.42 75.1326 261.23 65.9434L260.523 66.6505L259.816 67.3576C268.63 76.1718 273.582 88.1264 273.582 100.592H274.582Z" fill="url(#paint1_linear_237_102)" mask="url(#path-1-inside-1_237_102)"/>
<defs>
<linearGradient id="paint0_linear_237_102" x1="14" y1="158.5" x2="318.227" y2="77.0151" gradientUnits="userSpaceOnUse">
<stop stop-color="#DFE0FF"/>
<stop offset="1" stop-color="#FFF4EA"/>
</linearGradient>
<linearGradient id="paint1_linear_237_102" x1="137.72" y1="0.333374" x2="137.72" y2="274.057" gradientUnits="userSpaceOnUse">
<stop stop-color="#7D87F3" stop-opacity="0.1"/>
<stop offset="1" stop-color="#666666" stop-opacity="0"/>
</linearGradient>
</defs>
</svg>
