<svg width="274" height="275" viewBox="0 0 274 275" fill="none" xmlns="http://www.w3.org/2000/svg">
<mask id="path-1-inside-1_238_129" fill="white">
<path d="M259.732 66.6505C268.734 75.6522 273.791 87.8612 273.791 100.592V226.057C273.791 226.264 273.79 226.471 273.787 226.677C273.782 227.09 273.772 227.502 273.756 227.912C273.686 229.759 273.511 231.579 273.238 233.367C273.207 233.565 273.176 233.763 273.143 233.961C273.077 234.357 273.007 234.751 272.932 235.143C272.894 235.339 272.856 235.535 272.816 235.731C272.656 236.512 272.477 237.286 272.28 238.053C272.181 238.436 272.078 238.818 271.97 239.198C271.107 242.235 269.953 245.149 268.539 247.909C268.186 248.598 267.817 249.279 267.432 249.949C267.047 250.619 266.645 251.279 266.229 251.928C265.813 252.577 265.381 253.216 264.935 253.843C263.596 255.725 262.126 257.507 260.536 259.174C260.007 259.73 259.464 260.272 258.908 260.802C256.13 263.452 253.034 265.771 249.683 267.698C249.013 268.083 248.333 268.453 247.643 268.806C244.883 270.219 241.969 271.373 238.932 272.236C238.552 272.344 238.17 272.447 237.786 272.545C237.02 272.743 236.245 272.922 235.464 273.081C235.074 273.161 234.681 273.237 234.287 273.307C232.908 273.553 231.509 273.741 230.092 273.867C229.687 273.903 229.281 273.934 228.873 273.959C228.466 273.985 228.057 274.006 227.647 274.022C227.441 274.03 227.236 274.036 227.03 274.041C226.618 274.052 226.205 274.057 225.791 274.057H100.326C87.5955 274.057 75.3865 269 66.3847 259.998L14.1265 207.74C5.12477 198.738 0.067627 186.529 0.067627 173.799V48.3334C0.067627 21.8237 21.558 0.333376 48.0676 0.333374H173.533C186.263 0.333374 198.472 5.3905 207.474 14.3922L259.732 66.6505Z"/>
</mask>
<path d="M259.732 66.6505C268.734 75.6522 273.791 87.8612 273.791 100.592V226.057C273.791 226.264 273.79 226.471 273.787 226.677C273.782 227.09 273.772 227.502 273.756 227.912C273.686 229.759 273.511 231.579 273.238 233.367C273.207 233.565 273.176 233.763 273.143 233.961C273.077 234.357 273.007 234.751 272.932 235.143C272.894 235.339 272.856 235.535 272.816 235.731C272.656 236.512 272.477 237.286 272.28 238.053C272.181 238.436 272.078 238.818 271.97 239.198C271.107 242.235 269.953 245.149 268.539 247.909C268.186 248.598 267.817 249.279 267.432 249.949C267.047 250.619 266.645 251.279 266.229 251.928C265.813 252.577 265.381 253.216 264.935 253.843C263.596 255.725 262.126 257.507 260.536 259.174C260.007 259.73 259.464 260.272 258.908 260.802C256.13 263.452 253.034 265.771 249.683 267.698C249.013 268.083 248.333 268.453 247.643 268.806C244.883 270.219 241.969 271.373 238.932 272.236C238.552 272.344 238.17 272.447 237.786 272.545C237.02 272.743 236.245 272.922 235.464 273.081C235.074 273.161 234.681 273.237 234.287 273.307C232.908 273.553 231.509 273.741 230.092 273.867C229.687 273.903 229.281 273.934 228.873 273.959C228.466 273.985 228.057 274.006 227.647 274.022C227.441 274.03 227.236 274.036 227.03 274.041C226.618 274.052 226.205 274.057 225.791 274.057H100.326C87.5955 274.057 75.3865 269 66.3847 259.998L14.1265 207.74C5.12477 198.738 0.067627 186.529 0.067627 173.799V48.3334C0.067627 21.8237 21.558 0.333376 48.0676 0.333374H173.533C186.263 0.333374 198.472 5.3905 207.474 14.3922L259.732 66.6505Z" fill="url(#paint0_linear_238_129)"/>
<path d="M273.791 226.057H274.791H273.791ZM273.787 226.677L272.787 226.664L273.787 226.677ZM273.756 227.912L274.755 227.95L273.756 227.912ZM273.238 233.367L274.226 233.518L273.238 233.367ZM273.143 233.961L272.156 233.798L273.143 233.961ZM272.932 235.143L273.914 235.331L272.932 235.143ZM272.816 235.731L271.836 235.53L272.816 235.731ZM272.28 238.053L273.248 238.302L272.28 238.053ZM271.97 239.198L271.008 238.924L271.97 239.198ZM268.539 247.909L269.429 248.364V248.364L268.539 247.909ZM267.432 249.949L266.565 249.45L267.432 249.949ZM266.229 251.928L267.071 252.468L266.229 251.928ZM264.935 253.843L264.12 253.264L264.935 253.843ZM260.536 259.174L261.26 259.864L260.536 259.174ZM258.908 260.802L258.218 260.078L258.908 260.802ZM249.683 267.698L250.181 268.565L249.683 267.698ZM247.643 268.806L247.187 267.916L247.643 268.806ZM238.932 272.236L239.205 273.198L238.932 272.236ZM237.786 272.545L237.537 271.577L237.786 272.545ZM235.464 273.081L235.665 274.061L235.464 273.081ZM234.287 273.307L234.112 272.323H234.112L234.287 273.307ZM230.092 273.867L230.18 274.863L230.092 273.867ZM228.873 273.959L228.81 272.961L228.873 273.959ZM227.647 274.022L227.685 275.021H227.685L227.647 274.022ZM227.03 274.041L227.004 273.042L227.03 274.041ZM225.791 274.057V275.057V274.057ZM48.0676 0.333374V-0.666626V0.333374ZM14.1265 207.74L13.4194 208.447L14.1265 207.74ZM66.3847 259.998L65.6776 260.705L66.3847 259.998ZM259.732 66.6505L260.439 65.9434L259.732 66.6505ZM273.791 100.592H272.791V226.057H273.791H274.791V100.592H273.791ZM273.791 226.057H272.791C272.791 226.26 272.79 226.462 272.787 226.664L273.787 226.677L274.787 226.69C274.79 226.479 274.791 226.268 274.791 226.057H273.791ZM273.787 226.677L272.787 226.664C272.782 227.069 272.772 227.473 272.757 227.874L273.756 227.912L274.755 227.95C274.771 227.531 274.782 227.111 274.787 226.69L273.787 226.677ZM273.756 227.912L272.757 227.874C272.688 229.683 272.516 231.465 272.249 233.216L273.238 233.367L274.226 233.518C274.505 231.693 274.684 229.835 274.755 227.95L273.756 227.912ZM273.238 233.367L272.249 233.216C272.219 233.41 272.188 233.604 272.156 233.798L273.143 233.961L274.129 234.125C274.163 233.923 274.195 233.72 274.226 233.518L273.238 233.367ZM273.143 233.961L272.156 233.798C272.092 234.185 272.023 234.571 271.95 234.955L272.932 235.143L273.914 235.331C273.991 234.931 274.062 234.528 274.129 234.125L273.143 233.961ZM272.932 235.143L271.95 234.955C271.913 235.148 271.875 235.34 271.836 235.53L272.816 235.731L273.795 235.931C273.836 235.731 273.876 235.531 273.914 235.331L272.932 235.143ZM272.816 235.731L271.836 235.53C271.679 236.295 271.504 237.053 271.311 237.804L272.28 238.053L273.248 238.302C273.449 237.519 273.632 236.729 273.795 235.931L272.816 235.731ZM272.28 238.053L271.311 237.804C271.214 238.179 271.113 238.553 271.008 238.924L271.97 239.198L272.932 239.471C273.042 239.083 273.147 238.693 273.248 238.302L272.28 238.053ZM271.97 239.198L271.008 238.924C270.164 241.898 269.033 244.751 267.649 247.453L268.539 247.909L269.429 248.364C270.872 245.547 272.051 242.572 272.932 239.471L271.97 239.198ZM268.539 247.909L267.649 247.453C267.303 248.129 266.942 248.795 266.565 249.45L267.432 249.949L268.299 250.447C268.692 249.763 269.069 249.068 269.429 248.364L268.539 247.909ZM267.432 249.949L266.565 249.45C266.188 250.106 265.795 250.752 265.387 251.388L266.229 251.928L267.071 252.468C267.495 251.805 267.905 251.132 268.299 250.447L267.432 249.949ZM266.229 251.928L265.387 251.388C264.979 252.024 264.557 252.649 264.12 253.264L264.935 253.843L265.75 254.423C266.205 253.782 266.646 253.131 267.071 252.468L266.229 251.928ZM264.935 253.843L264.12 253.264C262.809 255.107 261.369 256.852 259.813 258.484L260.536 259.174L261.26 259.864C262.883 258.162 264.384 256.344 265.75 254.423L264.935 253.843ZM260.536 259.174L259.813 258.484C259.294 259.028 258.762 259.56 258.218 260.078L258.908 260.802L259.599 261.526C260.165 260.985 260.72 260.431 261.26 259.864L260.536 259.174ZM258.908 260.802L258.218 260.078C255.497 262.673 252.465 264.944 249.184 266.831L249.683 267.698L250.181 268.565C253.602 266.598 256.762 264.23 259.599 261.526L258.908 260.802ZM249.683 267.698L249.184 266.831C248.528 267.208 247.862 267.57 247.187 267.916L247.643 268.806L248.099 269.696C248.803 269.335 249.497 268.958 250.181 268.565L249.683 267.698ZM247.643 268.806L247.187 267.916C244.485 269.3 241.632 270.429 238.659 271.274L238.932 272.236L239.205 273.198C242.306 272.317 245.281 271.139 248.099 269.696L247.643 268.806ZM238.932 272.236L238.659 271.274C238.287 271.379 237.913 271.48 237.537 271.577L237.786 272.545L238.036 273.514C238.427 273.413 238.817 273.308 239.205 273.198L238.932 272.236ZM237.786 272.545L237.537 271.577C236.786 271.77 236.028 271.945 235.264 272.102L235.464 273.081L235.665 274.061C236.462 273.898 237.253 273.715 238.036 273.514L237.786 272.545ZM235.464 273.081L235.264 272.102C234.881 272.18 234.497 272.254 234.112 272.323L234.287 273.307L234.463 274.291C234.866 274.22 235.266 274.143 235.665 274.061L235.464 273.081ZM234.287 273.307L234.112 272.323C232.761 272.564 231.391 272.747 230.004 272.87L230.092 273.867L230.18 274.863C231.627 274.734 233.055 274.543 234.463 274.291L234.287 273.307ZM230.092 273.867L230.004 272.87C229.607 272.906 229.209 272.936 228.81 272.961L228.873 273.959L228.937 274.957C229.353 274.931 229.767 274.899 230.18 274.863L230.092 273.867ZM228.873 273.959L228.81 272.961C228.41 272.987 228.01 273.007 227.609 273.023L227.647 274.022L227.685 275.021C228.104 275.005 228.521 274.984 228.937 274.957L228.873 273.959ZM227.647 274.022L227.609 273.023C227.408 273.03 227.206 273.037 227.004 273.042L227.03 274.041L227.055 275.041C227.265 275.036 227.475 275.029 227.685 275.021L227.647 274.022ZM227.03 274.041L227.004 273.042C226.601 273.052 226.197 273.057 225.791 273.057V274.057V275.057C226.214 275.057 226.635 275.052 227.055 275.041L227.03 274.041ZM225.791 274.057V273.057H100.326V274.057V275.057H225.791V274.057ZM66.3847 259.998L67.0918 259.291L14.8336 207.033L14.1265 207.74L13.4194 208.447L65.6776 260.705L66.3847 259.998ZM0.067627 173.799H1.06763V48.3334H0.067627H-0.932373V173.799H0.067627ZM0.067627 48.3334H1.06763C1.06763 22.376 22.1102 1.33338 48.0676 1.33337V0.333374V-0.666626C21.0057 -0.666624 -0.932373 21.2714 -0.932373 48.3334H0.067627ZM48.0676 0.333374V1.33337H173.533V0.333374V-0.666626H48.0676V0.333374ZM207.474 14.3922L206.767 15.0994L259.025 67.3576L259.732 66.6505L260.439 65.9434L208.181 13.6851L207.474 14.3922ZM173.533 0.333374V1.33337C185.998 1.33337 197.953 6.28515 206.767 15.0994L207.474 14.3922L208.181 13.6851C198.992 4.49586 186.529 -0.666626 173.533 -0.666626V0.333374ZM14.1265 207.74L14.8336 207.033C6.01941 198.219 1.06763 186.264 1.06763 173.799H0.067627H-0.932373C-0.932373 186.794 4.23013 199.258 13.4194 208.447L14.1265 207.74ZM100.326 274.057V273.057C87.8607 273.057 75.906 268.105 67.0918 259.291L66.3847 259.998L65.6776 260.705C74.8669 269.895 87.3302 275.057 100.326 275.057V274.057ZM273.791 100.592H274.791C274.791 87.596 269.629 75.1326 260.439 65.9434L259.732 66.6505L259.025 67.3576C267.839 76.1718 272.791 88.1264 272.791 100.592H273.791Z" fill="url(#paint1_linear_238_129)" mask="url(#path-1-inside-1_238_129)"/>
<defs>
<linearGradient id="paint0_linear_238_129" x1="69.5" y1="261" x2="172.631" y2="-98.3927" gradientUnits="userSpaceOnUse">
<stop stop-color="#DFE0FF"/>
<stop offset="1" stop-color="#FFF4EA"/>
</linearGradient>
<linearGradient id="paint1_linear_238_129" x1="136.929" y1="0.333374" x2="136.929" y2="274.057" gradientUnits="userSpaceOnUse">
<stop stop-color="#7D87F3" stop-opacity="0.1"/>
<stop offset="1" stop-color="#666666" stop-opacity="0"/>
</linearGradient>
</defs>
</svg>
