<svg width="26" height="26" viewBox="0 0 26 26" fill="none" xmlns="http://www.w3.org/2000/svg">
<path d="M24.4959 17.4039C25.0206 16.7348 25.2722 16.0174 25.2401 15.2786C25.2079 14.4649 24.8439 13.8279 24.5441 13.4371C24.8921 12.5698 25.0259 11.2047 23.8642 10.1447C23.013 9.36847 21.5676 9.02049 19.5655 9.11685C18.1575 9.1811 16.9798 9.44341 16.9316 9.45412H16.9262C16.6585 9.5023 16.3748 9.56119 16.0857 9.62543C16.0643 9.28281 16.1232 8.43162 16.7549 6.5151C17.5044 4.23455 17.4616 2.48934 16.6157 1.32229C15.7271 0.0963614 14.3084 0 13.8908 0C13.4893 0 13.1199 0.165956 12.8576 0.4711C12.2634 1.16169 12.333 2.4358 12.4079 3.02468C11.7013 4.91978 9.72053 9.56654 8.04492 10.8567C8.01279 10.8781 7.98603 10.9049 7.95926 10.9317C7.46675 11.4509 7.13484 12.013 6.90999 12.5056C6.59414 12.3343 6.23546 12.2379 5.85002 12.2379H2.58444C1.35316 12.2379 0.357422 13.239 0.357422 14.4649V23.1642C0.357422 24.3955 1.35851 25.3912 2.58444 25.3912H5.85002C6.32647 25.3912 6.7708 25.2413 7.13484 24.9844L8.39289 25.1343C8.58561 25.161 12.0118 25.5946 15.529 25.5251C16.166 25.5732 16.7656 25.6 17.3224 25.6C18.2806 25.6 19.1158 25.5251 19.8117 25.3752C21.4499 25.0272 22.5687 24.3312 23.1362 23.3087C23.5698 22.5271 23.5698 21.7509 23.5002 21.2584C24.5655 20.2948 24.7529 19.2294 24.7154 18.48C24.694 18.0463 24.5977 17.677 24.4959 17.4039ZM2.58444 23.9458C2.15081 23.9458 1.80284 23.5925 1.80284 23.1642V14.4596C1.80284 14.0259 2.15617 13.678 2.58444 13.678H5.85002C6.28364 13.678 6.63162 14.0313 6.63162 14.4596V23.1588C6.63162 23.5925 6.27829 23.9404 5.85002 23.9404H2.58444V23.9458ZM23.1255 16.7776C22.9006 17.0131 22.8578 17.3718 23.0291 17.6502C23.0291 17.6555 23.2486 18.0303 23.2754 18.5442C23.3128 19.2455 22.9756 19.8665 22.2689 20.3965C22.0173 20.5892 21.9156 20.9211 22.0227 21.2209C22.0227 21.2263 22.2529 21.9329 21.8781 22.6021C21.5194 23.2445 20.7218 23.7049 19.5119 23.9619C18.5429 24.1706 17.226 24.2081 15.6093 24.0796C15.5879 24.0796 15.5611 24.0796 15.5343 24.0796C12.0921 24.1546 8.61238 23.7049 8.5749 23.6995H8.56955L8.02886 23.6353C8.06098 23.4854 8.07704 23.3248 8.07704 23.1642V14.4596C8.07704 14.2294 8.03956 14.0045 7.97532 13.7957C8.07168 13.4371 8.33935 12.6394 8.97106 11.9595C11.3747 10.0537 13.7249 3.62426 13.8266 3.34588C13.8694 3.23346 13.8801 3.11033 13.8587 2.9872C13.7677 2.38762 13.7998 1.6542 13.9283 1.43471C14.212 1.44007 14.9776 1.52037 15.438 2.15742C15.984 2.91225 15.9626 4.26131 15.3737 6.04935C14.4744 8.77424 14.3994 10.209 15.1114 10.8407C15.4647 11.1565 15.9358 11.1726 16.2785 11.0494C16.605 10.9745 16.9155 10.9102 17.21 10.8621C17.2314 10.8567 17.2581 10.8514 17.2795 10.846C18.923 10.4873 21.8674 10.2678 22.8899 11.1993C23.7572 11.9916 23.1415 13.0409 23.0719 13.1533C22.8739 13.4531 22.9327 13.8439 23.2004 14.0848C23.2058 14.0902 23.7679 14.6202 23.7946 15.3322C23.8161 15.8086 23.5912 16.2958 23.1255 16.7776Z" fill="#854EFF"/>
</svg>
