<svg width="19" height="13" viewBox="0 0 19 13" fill="none" xmlns="http://www.w3.org/2000/svg">
<path d="M6.73119 10.7084C6.5733 10.7078 6.42146 10.6475 6.30619 10.5396C5.73545 9.99776 5.28095 9.34541 4.97037 8.62228C4.65979 7.89915 4.49962 7.12038 4.49962 6.33338C4.49962 5.54638 4.65979 4.76761 4.97037 4.04448C5.28095 3.32135 5.73545 2.669 6.30619 2.12713C6.42918 2.0274 6.58544 1.97807 6.7434 1.9891C6.90136 2.00014 7.04924 2.07072 7.15717 2.18658C7.26509 2.30245 7.32502 2.45495 7.32484 2.6133C7.32466 2.77164 7.26438 2.92401 7.15619 3.03963C6.71191 3.46548 6.35838 3.97682 6.11686 4.54286C5.87535 5.10891 5.75085 5.71796 5.75085 6.33338C5.75085 6.9488 5.87535 7.55785 6.11686 8.1239C6.35838 8.68994 6.71191 9.20127 7.15619 9.62713C7.24758 9.71269 7.31116 9.82371 7.33872 9.94583C7.36627 10.0679 7.35651 10.1955 7.31072 10.312C7.26493 10.4285 7.1852 10.5286 7.08187 10.5993C6.97854 10.6699 6.85637 10.7079 6.73119 10.7084ZM4.23119 12.3834C4.3476 12.2663 4.41294 12.1079 4.41294 11.9428C4.41294 11.7776 4.3476 11.6192 4.23119 11.5021C3.53197 10.835 2.97536 10.033 2.59507 9.14457C2.21477 8.25614 2.01869 7.29978 2.01869 6.33338C2.01869 5.36698 2.21477 4.41062 2.59507 3.52219C2.97536 2.63376 3.53197 1.83173 4.23119 1.16463C4.3522 1.04777 4.42182 0.887625 4.42475 0.719428C4.42768 0.551231 4.36368 0.388759 4.24682 0.267754C4.12996 0.146749 3.96981 0.0771233 3.80162 0.074193C3.63342 0.0712628 3.47095 0.135268 3.34994 0.252129C2.52664 1.03663 1.87122 1.98014 1.42338 3.02546C0.975545 4.07079 0.744629 5.19616 0.744629 6.33338C0.744629 7.4706 0.975545 8.59597 1.42338 9.6413C1.87122 10.6866 2.52664 11.6301 3.34994 12.4146C3.41008 12.4712 3.48084 12.5153 3.55812 12.5444C3.63541 12.5735 3.71768 12.5869 3.80021 12.584C3.88273 12.5811 3.96386 12.5619 4.0389 12.5275C4.11395 12.493 4.18143 12.4441 4.23744 12.3834H4.23119ZM12.6874 10.5396C13.2582 9.99776 13.7127 9.34541 14.0233 8.62228C14.3338 7.89915 14.494 7.12038 14.494 6.33338C14.494 5.54638 14.3338 4.76761 14.0233 4.04448C13.7127 3.32135 13.2582 2.669 12.6874 2.12713C12.6275 2.07091 12.5571 2.02704 12.4803 1.99802C12.4034 1.96901 12.3216 1.95542 12.2394 1.95803C12.1573 1.96064 12.0765 1.9794 12.0016 2.01324C11.9268 2.04708 11.8593 2.09534 11.8031 2.15525C11.7468 2.21517 11.703 2.28557 11.674 2.36244C11.6449 2.43931 11.6314 2.52114 11.634 2.60327C11.6366 2.68539 11.6553 2.76619 11.6892 2.84106C11.723 2.91593 11.7713 2.98341 11.8312 3.03963C12.2779 3.46409 12.6335 3.97498 12.8766 4.54121C13.1196 5.10744 13.2449 5.71719 13.2449 6.33338C13.2449 6.94957 13.1196 7.55932 12.8766 8.12555C12.6335 8.69178 12.2779 9.20266 11.8312 9.62713C11.7105 9.74005 11.6395 9.89616 11.6337 10.0613C11.6278 10.2265 11.6876 10.3872 11.7999 10.5084C11.8589 10.572 11.9305 10.6226 12.0101 10.6571C12.0898 10.6915 12.1757 10.709 12.2624 10.7084C12.4203 10.7078 12.5722 10.6475 12.6874 10.5396ZM15.6374 12.4146C16.4631 11.6315 17.1207 10.6885 17.5701 9.64297C18.0195 8.59745 18.2512 7.47138 18.2512 6.33338C18.2512 5.19538 18.0195 4.06931 17.5701 3.02379C17.1207 1.97828 16.4631 1.03523 15.6374 0.252129C15.5145 0.152399 15.3582 0.103069 15.2002 0.114104C15.0423 0.12514 14.8944 0.195719 14.7865 0.311582C14.6785 0.427445 14.6186 0.579955 14.6188 0.738298C14.619 0.896641 14.6792 1.04901 14.7874 1.16463C15.4867 1.83173 16.0433 2.63376 16.4236 3.52219C16.8039 4.41062 16.9999 5.36698 16.9999 6.33338C16.9999 7.29978 16.8039 8.25614 16.4236 9.14457C16.0433 10.033 15.4867 10.835 14.7874 11.5021C14.6668 11.615 14.5958 11.7712 14.5899 11.9363C14.5841 12.1015 14.6438 12.2622 14.7562 12.3834C14.8145 12.4462 14.885 12.4964 14.9635 12.5308C15.042 12.5652 15.1267 12.5831 15.2124 12.5834C15.3703 12.5828 15.5222 12.5225 15.6374 12.4146ZM10.7499 6.33338C10.7499 6.08615 10.6766 5.84448 10.5393 5.63892C10.4019 5.43336 10.2067 5.27314 9.9783 5.17853C9.74989 5.08392 9.49856 5.05917 9.25608 5.1074C9.0136 5.15563 8.79087 5.27468 8.61606 5.4495C8.44124 5.62431 8.32219 5.84704 8.27396 6.08952C8.22573 6.33199 8.25048 6.58333 8.34509 6.81173C8.4397 7.04014 8.59992 7.23536 8.80548 7.37272C9.01104 7.51007 9.25272 7.58338 9.49994 7.58338C9.83146 7.58338 10.1494 7.45168 10.3838 7.21726C10.6182 6.98284 10.7499 6.6649 10.7499 6.33338Z" fill="#301B69"/>
</svg>
