<svg width="21" height="21" viewBox="0 0 21 21" fill="none" xmlns="http://www.w3.org/2000/svg">
<path d="M10.5 18.2319C14.6421 18.2319 18 14.8741 18 10.7319C18 6.5898 14.6421 3.23193 10.5 3.23193C6.35786 3.23193 3 6.5898 3 10.7319C3 14.8741 6.35786 18.2319 10.5 18.2319Z" stroke="#301B69" stroke-opacity="0.76" stroke-width="1.5" stroke-linecap="round" stroke-linejoin="round"/>
<path d="M10.5 15.7319C11.0178 15.7319 11.4375 15.3122 11.4375 14.7944C11.4375 14.2767 11.0178 13.8569 10.5 13.8569C9.98223 13.8569 9.5625 14.2767 9.5625 14.7944C9.5625 15.3122 9.98223 15.7319 10.5 15.7319Z" fill="#301B69" fill-opacity="0.76"/>
<path d="M10.5 11.9824V11.3574C10.9326 11.3574 11.3556 11.2291 11.7153 10.9888C12.075 10.7484 12.3554 10.4068 12.521 10.007C12.6866 9.60733 12.7299 9.1675 12.6455 8.74316C12.5611 8.31883 12.3527 7.92905 12.0468 7.62313C11.7409 7.3172 11.3511 7.10886 10.9268 7.02446C10.5024 6.94005 10.0626 6.98337 9.66288 7.14894C9.26317 7.3145 8.92153 7.59488 8.68116 7.95461C8.4408 8.31435 8.3125 8.73728 8.3125 9.16992" stroke="#301B69" stroke-opacity="0.76" stroke-width="2" stroke-linecap="round" stroke-linejoin="round"/>
</svg>
