<svg width="16" height="16" viewBox="0 0 16 16" fill="none" xmlns="http://www.w3.org/2000/svg">
<path d="M13.0536 9C13.0549 9.20485 12.9927 9.40506 12.8755 9.5731C12.7584 9.74114 12.592 9.86874 12.3994 9.93835L9.13934 11.1394L7.93829 14.3994C7.86756 14.5913 7.73968 14.757 7.5719 14.8739C7.40411 14.9909 7.20448 15.0536 6.99994 15.0536C6.7954 15.0536 6.59577 14.9909 6.42798 14.8739C6.2602 14.757 6.13231 14.5913 6.06158 14.3994L4.86054 11.1394L1.60053 9.93835C1.4086 9.86762 1.24298 9.73974 1.12599 9.57196C1.00901 9.40417 0.946289 9.20454 0.946289 9C0.946289 8.79546 1.00901 8.59583 1.12599 8.42804C1.24298 8.26026 1.4086 8.13238 1.60053 8.06165L4.86054 6.8606L6.06158 3.60059C6.13231 3.40866 6.2602 3.24304 6.42798 3.12606C6.59577 3.00907 6.7954 2.94635 6.99994 2.94635C7.20448 2.94635 7.40411 3.00907 7.5719 3.12606C7.73968 3.24304 7.86756 3.40866 7.93829 3.60059L9.13934 6.8606L12.3994 8.06165C12.592 8.13126 12.7584 8.25886 12.8755 8.4269C12.9927 8.59494 13.0549 8.79515 13.0536 9ZM9.49994 3H10.4999V4C10.4999 4.13261 10.5526 4.25979 10.6464 4.35355C10.7402 4.44732 10.8673 4.5 10.9999 4.5C11.1325 4.5 11.2597 4.44732 11.3535 4.35355C11.4473 4.25979 11.4999 4.13261 11.4999 4V3H12.4999C12.6325 3 12.7597 2.94732 12.8535 2.85355C12.9473 2.75979 12.9999 2.63261 12.9999 2.5C12.9999 2.36739 12.9473 2.24021 12.8535 2.14645C12.7597 2.05268 12.6325 2 12.4999 2H11.4999V1C11.4999 0.867392 11.4473 0.740215 11.3535 0.646447C11.2597 0.552678 11.1325 0.5 10.9999 0.5C10.8673 0.5 10.7402 0.552678 10.6464 0.646447C10.5526 0.740215 10.4999 0.867392 10.4999 1V2H9.49994C9.36733 2 9.24015 2.05268 9.14639 2.14645C9.05262 2.24021 8.99994 2.36739 8.99994 2.5C8.99994 2.63261 9.05262 2.75979 9.14639 2.85355C9.24015 2.94732 9.36733 3 9.49994 3ZM14.9999 5H14.4999V4.5C14.4999 4.36739 14.4473 4.24021 14.3535 4.14645C14.2597 4.05268 14.1325 4 13.9999 4C13.8673 4 13.7402 4.05268 13.6464 4.14645C13.5526 4.24021 13.4999 4.36739 13.4999 4.5V5H12.9999C12.8673 5 12.7402 5.05268 12.6464 5.14645C12.5526 5.24021 12.4999 5.36739 12.4999 5.5C12.4999 5.63261 12.5526 5.75979 12.6464 5.85355C12.7402 5.94732 12.8673 6 12.9999 6H13.4999V6.5C13.4999 6.63261 13.5526 6.75979 13.6464 6.85355C13.7402 6.94732 13.8673 7 13.9999 7C14.1325 7 14.2597 6.94732 14.3535 6.85355C14.4473 6.75979 14.4999 6.63261 14.4999 6.5V6H14.9999C15.1325 6 15.2597 5.94732 15.3535 5.85355C15.4473 5.75979 15.4999 5.63261 15.4999 5.5C15.4999 5.36739 15.4473 5.24021 15.3535 5.14645C15.2597 5.05268 15.1325 5 14.9999 5Z" fill="#7D87F3"/>
</svg>
