<svg width="19" height="18" viewBox="0 0 19 18" fill="none" xmlns="http://www.w3.org/2000/svg">
<path d="M9.84462 14.6329L13.7849 17.1293C14.2886 17.4484 14.9139 16.9738 14.7644 16.3859L13.626 11.9076C13.5939 11.7828 13.5977 11.6516 13.637 11.5289C13.6762 11.4063 13.7492 11.2972 13.8477 11.2142L17.3811 8.27326C17.8453 7.88683 17.6057 7.11632 17.0092 7.07761L12.3949 6.77814C12.2706 6.76926 12.1514 6.72525 12.0511 6.65125C11.9509 6.57724 11.8737 6.47628 11.8286 6.36012L10.1076 2.02629C10.0609 1.903 9.97769 1.79685 9.86915 1.72195C9.76062 1.64705 9.63187 1.60693 9.5 1.60693C9.36813 1.60693 9.23938 1.64705 9.13085 1.72195C9.02232 1.79685 8.93914 1.903 8.89236 2.02629L7.1714 6.36012C7.1263 6.47628 7.04914 6.57724 6.9489 6.65125C6.84865 6.72525 6.72944 6.76926 6.60515 6.77814L1.99078 7.07761C1.39429 7.11632 1.15466 7.88683 1.61894 8.27326L5.15232 11.2142C5.25079 11.2972 5.32383 11.4063 5.36305 11.5289C5.40226 11.6516 5.40606 11.7828 5.374 11.9076L4.31824 16.0607C4.13889 16.7662 4.88929 17.3357 5.49369 16.9528L9.15539 14.6329C9.25837 14.5674 9.37792 14.5325 9.5 14.5325C9.62208 14.5325 9.74163 14.5674 9.84462 14.6329V14.6329Z" stroke="#301B69" stroke-width="1.5" stroke-linecap="round" stroke-linejoin="round"/>
</svg>
