<svg width="26" height="17" viewBox="0 0 26 17" fill="none" xmlns="http://www.w3.org/2000/svg">
<path d="M12.8 16.8C4.4254 16.8 0.2734 9.49925 0.1008 9.18865C-0.0336 8.94685 -0.0336 8.65305 0.1008 8.41125C0.2734 8.10085 4.4254 0.800049 12.8 0.800049C21.1746 0.800049 25.3266 8.10085 25.4992 8.41145C25.6336 8.65325 25.6336 8.94705 25.4992 9.18885C25.3266 9.49925 21.1746 16.8 12.8 16.8ZM1.7414 8.79885C2.693 10.241 6.4292 15.2 12.8 15.2C19.191 15.2 22.9106 10.245 23.8586 8.80125C22.907 7.35905 19.1708 2.40005 12.8 2.40005C6.409 2.40005 2.6894 7.35505 1.7414 8.79885ZM12.8 13.6C10.1532 13.6 8 11.4468 8 8.80005C8 6.15325 10.1532 4.00005 12.8 4.00005C15.4468 4.00005 17.6 6.15325 17.6 8.80005C17.6 11.4468 15.4468 13.6 12.8 13.6ZM12.8 5.60005C11.0356 5.60005 9.6 7.03565 9.6 8.80005C9.6 10.5644 11.0356 12 12.8 12C14.5644 12 16 10.5644 16 8.80005C16 7.03565 14.5644 5.60005 12.8 5.60005Z" fill="#854EFF"/>
</svg>
